<?xml version="1.0" encoding="UTF-8"?>
<svg version="1.1" xmlns="http://www.w3.org/2000/svg" width="261" height="261">
<path d="M0 0 C86.13 0 172.26 0 261 0 C261 86.13 261 172.26 261 261 C174.87 261 88.74 261 0 261 C0 174.87 0 88.74 0 0 Z " fill="#FEFEFE" transform="translate(0,0)"/>
<path d="M0 0 C3.64247857 1.59787975 6.44399679 3.84792042 9.5 6.375 C10.4384375 7.14585938 11.376875 7.91671875 12.34375 8.7109375 C14.68462607 10.72822188 16.93005473 12.70548519 19 15 C19 15.66 19 16.32 19 17 C22.63 17 26.26 17 30 17 C29.979375 17.85980469 29.95875 18.71960938 29.9375 19.60546875 C30.11834887 29.97036959 33.22099239 35.44135565 39 44 C53.78088824 69.32135772 54.51144688 104.87761942 47.33203125 132.57714844 C46.58392458 135.27765518 45.77693823 137.95154243 44.9375 140.625 C44.6995874 141.41100586 44.4616748 142.19701172 44.21655273 143.00683594 C41.06860204 152.3138206 36.21572066 159.13327487 31 168 C30.67 186.48 30.34 204.96 30 224 C-38.64 224 -107.28 224 -178 224 C-178.33 205.52 -178.66 187.04 -179 168 C-182.96 161.07 -182.96 161.07 -187 154 C-197.797498 131.4899618 -202.30221755 105.78077307 -198 81 C-197.67 81 -197.34 81 -197 81 C-197.02618408 81.71728271 -197.05236816 82.43456543 -197.0793457 83.17358398 C-198.02924719 113.4381667 -192.49245043 137.01509913 -179 164 C-178.67 122.75 -178.34 81.5 -178 39 C-177.67 39 -177.34 39 -177 39 C-176.00583861 52.49320217 -175.93426535 65.90650563 -176.07766151 79.43112755 C-176.13940947 85.63819758 -176.16903942 91.84547161 -176.20507812 98.05273438 C-176.25306856 105.90509205 -176.31043746 113.7571026 -176.39770508 121.60913086 C-176.46793891 128.0035612 -176.50889379 134.39759524 -176.53032494 140.79236794 C-176.5438922 143.21770471 -176.56827582 145.64300663 -176.60381508 148.06812096 C-176.65208314 151.44914491 -176.662964 154.8283928 -176.6652832 158.2097168 C-176.6884259 159.20355377 -176.7115686 160.19739075 -176.7354126 161.22134399 C-176.69057207 167.32499999 -175.63828862 170.487469 -171.28911114 174.84809589 C-170.86370446 175.22822425 -170.43829779 175.6083526 -170 176 C-170.33 176.66 -170.66 177.32 -171 178 C-172.65 176.02 -174.3 174.04 -176 172 C-176.33 188.83 -176.66 205.66 -177 223 C-151.26 222.67 -125.52 222.34 -99 222 C-103.95 220.68 -108.9 219.36 -114 218 C-126.31403754 213.70170388 -137.8811704 208.34574164 -148 200 C-147.09121094 199.81630859 -147.09121094 199.81630859 -146.1640625 199.62890625 C-143.20473897 198.76888623 -141.36646385 196.9305363 -139 195 C-138.34 195 -137.68 195 -137 195 C-136.60110753 193.70927478 -136.20627987 192.41729417 -135.8125 191.125 C-135.5340625 190.21878906 -135.255625 189.31257812 -134.96875 188.37890625 C-134.23703724 185.82676296 -133.58117556 183.295537 -132.96875 180.71484375 C-130.55341012 170.82130064 -127.53313238 163.97389922 -121 156 C-116.900289 150.14089885 -113.589941 144.41392545 -111.07421875 137.7265625 C-107.23549144 127.98317464 -102.68921856 119.97951144 -95.8203125 112.109375 C-90.09207153 105.4714992 -92.57991175 92.29992549 -93 84 C-93.75096834 77.37742537 -96.01534502 71.90861541 -99 66 C-100.55557617 65.98598145 -100.55557617 65.98598145 -102.14257812 65.97167969 C-106.07185421 65.93113972 -110.00039857 65.86522215 -113.92919922 65.79248047 C-115.61432335 65.76463511 -117.29956926 65.74324396 -118.98486328 65.72900391 C-129.28126233 65.63690731 -138.5009699 64.8157035 -148.38598633 61.83032227 C-156.18007347 60.03962508 -164.25732892 61.32315033 -172 63 C-172 62.01 -172 61.02 -172 60 C-172.99 60 -173.98 60 -175 60 C-174.3125 58.0625 -174.3125 58.0625 -173 56 C-170.375 55.25 -170.375 55.25 -168 55 C-168 55.66 -168 56.32 -168 57 C-165.40572912 58.29713544 -163.70940242 57.95714965 -160.8125 57.8125 C-155.85747892 57.75279173 -151.89288252 58.48401971 -147.17578125 59.96484375 C-138.59638127 62.44764046 -130.25323734 62.66684509 -121.375 62.75 C-119.84762421 62.77826669 -118.32027848 62.80820825 -116.79296875 62.83984375 C-111.19549607 62.94874013 -105.59860569 63.01341626 -100 63 C-100.99 60.525 -100.99 60.525 -102 58 C-98.60367023 61.04346434 -96.77652121 63.99342249 -94.875 68.125 C-94.37742187 69.17945312 -93.87984375 70.23390625 -93.3671875 71.3203125 C-90.3009105 79.57297801 -89.67824921 87.56488277 -89.75 96.3125 C-89.73839844 97.75592773 -89.73839844 97.75592773 -89.7265625 99.22851562 C-89.7397092 103.97776122 -89.87992635 107.6656272 -92 112 C-94.52128679 121.88282168 -94.20219504 131.89024799 -94 142 C-93.65743164 141.54149658 -93.31486328 141.08299316 -92.96191406 140.6105957 C-91.39213876 138.510584 -89.82107991 136.41153584 -88.25 134.3125 C-87.71117188 133.59126953 -87.17234375 132.87003906 -86.6171875 132.12695312 C-85.08425865 130.07993228 -83.54291685 128.03949678 -82 126 C-81.26394531 125.01644531 -80.52789062 124.03289062 -79.76953125 123.01953125 C-78 121 -78 121 -75.4375 120.375 C-73 121 -73 121 -71.4609375 123.17578125 C-69.98190759 126.03497543 -69.07427905 128.72294558 -68.1875 131.8125 C-66.39441738 137.45687292 -63.90079023 141.5791044 -60 146 C-57.39673464 140.09998955 -57.79790199 134.36955194 -57.91015625 128.05859375 C-57.93059193 125.67643445 -57.95076581 123.2942729 -57.97070312 120.91210938 C-58.01400975 117.18211229 -58.06228553 113.45226741 -58.11645508 109.72241211 C-58.16520177 106.10531141 -58.19477104 102.48840715 -58.22265625 98.87109375 C-58.2552932 97.22819618 -58.2552932 97.22819618 -58.28858948 95.55210876 C-58.35682664 84.71936965 -56.47497539 74.37688679 -51.125 64.875 C-50.79886719 64.24335937 -50.47273437 63.61171875 -50.13671875 62.9609375 C-47.99807955 59.03316435 -46.02935056 56.92823706 -42 55 C-41.34 54.67 -40.68 54.34 -40 54 C-42.21811763 52.89094118 -43.7137473 52.76453816 -46.17578125 52.5703125 C-47.00400391 52.49683594 -47.83222656 52.42335937 -48.68554688 52.34765625 C-50.42456952 52.20025953 -52.16417182 52.05953615 -53.90429688 51.92578125 C-58.62679049 51.49413582 -62.16202251 51.04893222 -66 48 C-66.33 47.34 -66.66 46.68 -67 46 C-67.67546875 46.09539062 -68.3509375 46.19078125 -69.046875 46.2890625 C-69.93890625 46.39992187 -70.8309375 46.51078125 -71.75 46.625 C-72.63171875 46.74101563 -73.5134375 46.85703125 -74.421875 46.9765625 C-77.22859878 47.00207817 -78.63384866 46.44843844 -81 45 C-81.226875 45.639375 -81.45375 46.27875 -81.6875 46.9375 C-83 49 -83 49 -85.625 49.75 C-86.40875 49.8325 -87.1925 49.915 -88 50 C-88 49.34 -88 48.68 -88 48 C-86.35 47.34 -84.7 46.68 -83 46 C-83.12375 44.741875 -83.2475 43.48375 -83.375 42.1875 C-83.47941406 41.12595703 -83.47941406 41.12595703 -83.5859375 40.04296875 C-83.92665391 37.70011858 -83.92665391 37.70011858 -86 35 C-86.1171875 32.2578125 -86.1171875 32.2578125 -85.875 29.125 C-85.81054688 28.09632812 -85.74609375 27.06765625 -85.6796875 26.0078125 C-85 23 -85 23 -81 18 C-105.75 18 -130.5 18 -156 18 C-156 17.67 -156 17.34 -156 17 C-99.24 16.67 -42.48 16.34 16 16 C10.555 10.555 10.555 10.555 5 5 C3.35 3.35 1.7 1.7 0 0 Z " fill="#8B8B8B" transform="translate(203,28)"/>
<path d="M0 0 C1.78083984 0.15855469 1.78083984 0.15855469 3.59765625 0.3203125 C6.87996509 0.86544449 9.81980609 1.72662568 12.9375 2.875 C12.4425 1.39 12.4425 1.39 11.9375 -0.125 C13.2575 -0.125 14.5775 -0.125 15.9375 -0.125 C16.14836979 14.02690564 16.30615364 28.17856537 16.40380955 42.33172321 C16.45069084 48.90440334 16.51423492 55.47602481 16.61645508 62.0480957 C16.71456488 68.39594545 16.76812572 74.7427799 16.79139519 81.09132957 C16.8079679 83.50785485 16.84033182 85.9243273 16.88907051 88.34041786 C17.30159846 109.64636629 17.30159846 109.64636629 11.61132812 116.70068359 C10.09970627 118.14231003 8.54454563 119.54057437 6.9375 120.875 C5.703566 122.17051209 4.48061714 123.47674279 3.27734375 124.80078125 C0.39157344 127.71347878 -2.55416165 130.56380149 -5.52490234 133.38964844 C-6.778452 134.60060368 -7.98474649 135.86032064 -9.17578125 137.1328125 C-12.426095 140.23178126 -14.36420517 140.84040299 -18.92578125 141.06640625 C-24.76803812 140.90231284 -30.84882613 140.72128553 -36.0625 137.875 C-37.59228516 135.23291016 -37.59228516 135.23291016 -38.8515625 131.9140625 C-39.55152344 130.12355469 -39.55152344 130.12355469 -40.265625 128.296875 C-40.7405843 127.0316253 -41.21453326 125.7659959 -41.6875 124.5 C-42.62934204 122.03036562 -43.58310201 119.5658162 -44.5390625 117.1015625 C-44.95236816 116.00408691 -45.36567383 114.90661133 -45.79150391 113.77587891 C-46.96520404 111.09706505 -48.28844874 109.16974112 -50.0625 106.875 C-50.68851303 103.93564083 -51.00387772 101.02804627 -51.33984375 98.04296875 C-52.07888391 94.80317647 -53.38120787 92.53351356 -55.09741211 89.71655273 C-56.73927836 86.58359116 -57.23163719 83.2630466 -57.875 79.8125 C-59.41155012 72.42033837 -61.95786564 66.33592743 -65.57421875 59.73046875 C-68.81648894 53.50973514 -68.24615288 47.25364893 -68.25 40.375 C-68.26224609 39.25351563 -68.27449219 38.13203125 -68.28710938 36.9765625 C-68.30770645 25.08518219 -67.09021638 15.27396108 -61.0625 4.875 C-59.98991943 4.8656543 -58.91733887 4.85630859 -57.81225586 4.84667969 C-53.75815214 4.80621688 -49.70476344 4.74031609 -45.65112305 4.66748047 C-43.91065797 4.639592 -42.1700738 4.61822123 -40.42944336 4.60400391 C-30.14085821 4.51502796 -21.07454232 3.70136019 -11.2097168 0.734375 C-7.16222387 -0.37082825 -4.15777066 -0.43281334 0 0 Z " fill="#FEFEFE" transform="translate(215.0625,88.125)"/>
<path d="M0 0 C0.66 0.33 1.32 0.66 2 1 C1.09636719 1.83144531 0.19273438 2.66289062 -0.73828125 3.51953125 C-1.92971816 4.61715423 -3.12112271 5.71481232 -4.3125 6.8125 C-5.20485352 7.63331055 -5.20485352 7.63331055 -6.11523438 8.47070312 C-6.69208984 9.00244141 -7.26894531 9.53417969 -7.86328125 10.08203125 C-8.39219971 10.56905518 -8.92111816 11.0560791 -9.46606445 11.55786133 C-11.0092835 13.00872793 -12.51015856 14.49453768 -14 16 C-8.69996538 16.73499811 -3.56728707 17.14194086 1.79296875 17.20532227 C2.89199776 17.22017166 2.89199776 17.22017166 4.01322937 17.23532104 C6.40462147 17.26659019 8.79603336 17.29155467 11.1875 17.31640625 C12.85758951 17.33700576 14.52767416 17.35800296 16.19775391 17.37937927 C20.57061804 17.43429071 24.94352679 17.48383497 29.31646729 17.53222656 C33.78784098 17.58266897 38.25915075 17.63823574 42.73046875 17.69335938 C51.48692494 17.80056203 60.243435 17.9020894 69 18 C67.125 21.875 67.125 21.875 66 23 C64.85269982 29.83068536 64.29309383 34.92067388 68 41 C68.3125 43.75 68.3125 43.75 68 46 C67.01 46.99 67.01 46.99 66 48 C64.68 48 63.36 48 62 48 C62 48.66 62 49.32 62 50 C66.23084903 48.31192092 66.23084903 48.31192092 69 45 C69.59167969 45.08378906 70.18335937 45.16757813 70.79296875 45.25390625 C75.82341014 45.94657119 75.82341014 45.94657119 80.8125 45.3125 C81.534375 45.209375 82.25625 45.10625 83 45 C83.556875 45.598125 84.11375 46.19625 84.6875 46.8125 C90.74494011 52.54251092 103.96346614 51.99275442 112 53 C109.87949338 54.64928293 107.94667366 56.02536559 105.51171875 57.18359375 C101.87998548 59.80996385 100.60962815 63.03735332 98.8125 67.0625 C98.47025391 67.77599609 98.12800781 68.48949219 97.77539062 69.22460938 C93.36336595 78.81112512 92.71850714 88.09911206 92.875 98.54296875 C92.88257324 99.71080399 92.89014648 100.87863922 92.89794922 102.0818634 C92.92221238 105.78389864 92.95947099 109.48560936 93 113.1875 C93.05329991 118.07681482 93.0932142 122.96597202 93.125 127.85546875 C93.14989502 129.52599556 93.14989502 129.52599556 93.17529297 131.23027039 C93.21103988 136.9026124 92.93655008 141.65018511 91 147 C83.39572944 140.02941865 80.49800864 131.53350715 77 122 C74.63404421 121.70088308 74.63404421 121.70088308 72 122 C70.20225479 123.47303394 70.20225479 123.47303394 68.80859375 125.578125 C68.25623047 126.32707031 67.70386719 127.07601562 67.13476562 127.84765625 C66.57466797 128.64042969 66.01457031 129.43320313 65.4375 130.25 C64.31380636 131.79877089 63.18757452 133.34570394 62.05859375 134.890625 C61.53378418 135.61185547 61.00897461 136.33308594 60.46826172 137.07617188 C58.81230355 139.24593416 57.01909427 141.16356218 55 143 C54.51259743 117.11350789 54.51259743 117.11350789 58.05078125 109.83984375 C62.4728524 96.61002595 59.18225889 79.36715374 53.28540039 67.19726562 C51.90625582 64.43689997 50.46603814 61.71518296 49 59 C49.495 60.98 49.495 60.98 50 63 C43.71781264 64.53780359 37.33350661 64.03567656 30.92041016 63.86791992 C28.66694639 63.81351275 26.41407484 63.78432419 24.16015625 63.75585938 C15.40059679 63.57292084 7.6755507 62.48260289 -0.69750977 59.86474609 C-5.02605454 58.73133103 -9.01499832 58.75193651 -13.45703125 58.92578125 C-16.4042684 59.01179892 -19.12479685 58.63893403 -22 58 C-20.02 57.505 -20.02 57.505 -18 57 C-18 56.34 -18 55.68 -18 55 C-22.23084903 56.68807908 -22.23084903 56.68807908 -25 60 C-25.10367861 61.45679137 -25.14646781 62.91814176 -25.15821838 64.37857056 C-25.17290161 65.75840874 -25.17290161 65.75840874 -25.18788147 67.16612244 C-25.19363693 68.17816238 -25.1993924 69.19020233 -25.20532227 70.23291016 C-25.22017166 71.82805702 -25.22017166 71.82805702 -25.23532104 73.45542908 C-25.2670008 76.98328395 -25.29171907 80.51115232 -25.31640625 84.0390625 C-25.33697018 86.48001462 -25.3579665 88.92096314 -25.37937927 91.36190796 C-25.43465783 97.79643845 -25.48404158 104.23100138 -25.53222656 110.66558838 C-25.5823994 117.22760923 -25.63810745 123.78958279 -25.69335938 130.3515625 C-25.80101168 143.23433435 -25.90262875 156.11714655 -26 169 C-26.33 169 -26.66 169 -27 169 C-27 131.05 -27 93.1 -27 54 C-27.33 90.63 -27.66 127.26 -28 165 C-37.63017613 155.36982387 -41.88225712 138.98279317 -45 126 C-45.31839844 124.7625 -45.63679688 123.525 -45.96484375 122.25 C-52.16466205 93.90797349 -48.73764739 64.07826007 -34 39 C-33.03086624 37.61791023 -32.05363823 36.24139576 -31.0625 34.875 C-27.56593842 29.68882477 -28.09330958 23.03967452 -28 17 C-27.28714844 17.020625 -26.57429688 17.04125 -25.83984375 17.0625 C-20.04751909 17.01925187 -20.04751909 17.01925187 -15.0625 14.43359375 C-13.95520874 13.0734355 -12.88050937 11.68624191 -11.8359375 10.27734375 C-8.52297542 6.16786101 -4.18976793 3.16972383 0 0 Z " fill="#939393" transform="translate(53,28)"/>
<path d="M0 0 C3.88708698 3.88708698 6.45817006 6.9166115 8.9375 11.625 C9.4473645 12.59300537 9.4473645 12.59300537 9.9675293 13.58056641 C25.05682451 43.46169126 25.84447531 79.07309147 15.9375 110.625 C15.5806311 111.80400879 15.5806311 111.80400879 15.21655273 113.00683594 C12.06860204 122.3138206 7.21572066 129.13327487 2 138 C1.67 156.48 1.34 174.96 1 194 C-67.64 194 -136.28 194 -207 194 C-207.33 175.52 -207.66 157.04 -208 138 C-211.96 131.07 -211.96 131.07 -216 124 C-226.797498 101.4899618 -231.30221755 75.78077307 -227 51 C-226.67 51 -226.34 51 -226 51 C-226.02618408 51.71728271 -226.05236816 52.43456543 -226.0793457 53.17358398 C-227.02924719 83.4381667 -221.49245043 107.01509913 -208 134 C-207.67 92.75 -207.34 51.5 -207 9 C-206.67 9 -206.34 9 -206 9 C-205.00583861 22.49320217 -204.93426535 35.90650563 -205.07766151 49.43112755 C-205.13940947 55.63819758 -205.16903942 61.84547161 -205.20507812 68.05273438 C-205.25306856 75.90509205 -205.31043746 83.7571026 -205.39770508 91.60913086 C-205.46793891 98.0035612 -205.50889379 104.39759524 -205.53032494 110.79236794 C-205.5438922 113.21770471 -205.56827582 115.64300663 -205.60381508 118.06812096 C-205.65208314 121.44914491 -205.662964 124.8283928 -205.6652832 128.2097168 C-205.6884259 129.20355377 -205.7115686 130.19739075 -205.7354126 131.22134399 C-205.69057207 137.32499999 -204.63828862 140.487469 -200.28911114 144.84809589 C-199.86370446 145.22822425 -199.43829779 145.6083526 -199 146 C-199.33 146.66 -199.66 147.32 -200 148 C-201.65 146.02 -203.3 144.04 -205 142 C-205.33 158.83 -205.66 175.66 -206 193 C-180.26 192.67 -154.52 192.34 -128 192 C-132.95 190.68 -137.9 189.36 -143 188 C-155.31403754 183.70170388 -166.8811704 178.34574164 -177 170 C-176.09121094 169.81630859 -176.09121094 169.81630859 -175.1640625 169.62890625 C-172.20473897 168.76888623 -170.36646385 166.9305363 -168 165 C-167.34 165 -166.68 165 -166 165 C-165.60110753 163.70927478 -165.20627987 162.41729417 -164.8125 161.125 C-164.5340625 160.21878906 -164.255625 159.31257812 -163.96875 158.37890625 C-163.23703724 155.82676296 -162.58117556 153.295537 -161.96875 150.71484375 C-159.55341012 140.82130064 -156.53313238 133.97389922 -150 126 C-145.900289 120.14089885 -142.589941 114.41392545 -140.07421875 107.7265625 C-136.23549144 97.98317464 -131.68921856 89.97951144 -124.8203125 82.109375 C-119.09207153 75.4714992 -121.57991175 62.29992549 -122 54 C-122.75096834 47.37742537 -125.01534502 41.90861541 -128 36 C-129.03705078 35.9906543 -130.07410156 35.98130859 -131.14257812 35.97167969 C-135.07185421 35.93113972 -139.00039857 35.86522215 -142.92919922 35.79248047 C-144.61432335 35.76463511 -146.29956926 35.74324396 -147.98486328 35.72900391 C-158.28126233 35.63690731 -167.5009699 34.8157035 -177.38598633 31.83032227 C-185.18007347 30.03962508 -193.25732892 31.32315033 -201 33 C-201 32.01 -201 31.02 -201 30 C-201.99 30 -202.98 30 -204 30 C-203.3125 28.0625 -203.3125 28.0625 -202 26 C-199.375 25.25 -199.375 25.25 -197 25 C-197 25.66 -197 26.32 -197 27 C-194.40572912 28.29713544 -192.70940242 27.95714965 -189.8125 27.8125 C-184.85747892 27.75279173 -180.89288252 28.48401971 -176.17578125 29.96484375 C-167.59638127 32.44764046 -159.25323734 32.66684509 -150.375 32.75 C-148.84762421 32.77826669 -147.32027848 32.80820825 -145.79296875 32.83984375 C-140.19549607 32.94874013 -134.59860569 33.01341626 -129 33 C-129.99 30.525 -129.99 30.525 -131 28 C-127.60367023 31.04346434 -125.77652121 33.99342249 -123.875 38.125 C-123.37742187 39.17945313 -122.87984375 40.23390625 -122.3671875 41.3203125 C-119.3009105 49.57297801 -118.67824921 57.56488277 -118.75 66.3125 C-118.73839844 67.75592773 -118.73839844 67.75592773 -118.7265625 69.22851562 C-118.73977863 74.0028438 -118.9290781 77.62805377 -121 82 C-121.42573106 84.09449169 -121.80000494 86.20003211 -122.125 88.3125 C-122.29257813 89.38113281 -122.46015625 90.44976562 -122.6328125 91.55078125 C-122.81457031 92.76314453 -122.81457031 92.76314453 -123 94 C-123.66 93.67 -124.32 93.34 -125 93 C-125 90.69 -125 88.38 -125 86 C-130.55317612 92.95998074 -134.24193326 99.42319812 -136.875 107.9375 C-139.14895159 114.95250895 -142.69798294 120.09345324 -147.24609375 125.8359375 C-153.35816383 133.64413212 -156.74269334 140.44553424 -158.9453125 150.0703125 C-159.11119873 150.78155273 -159.27708496 151.49279297 -159.44799805 152.22558594 C-159.76621856 153.62289936 -160.06565922 155.02466924 -160.34301758 156.43066406 C-161.42690865 161.3413791 -163.23172141 163.746103 -167 167 C-168.3921875 168.3921875 -168.3921875 168.3921875 -169.8125 169.8125 C-170.534375 170.534375 -171.25625 171.25625 -172 172 C-170.9171875 172.433125 -170.9171875 172.433125 -169.8125 172.875 C-167.20833333 173.91666667 -164.60416667 174.95833333 -162 176 C-161.73445313 175.13890625 -161.46890625 174.2778125 -161.1953125 173.390625 C-158.45337472 165.61284072 -154.41053932 158.40856759 -149 152.1875 C-145.48524374 148.0520958 -143.55197639 143.97744035 -141.5625 139 C-138.59424917 131.57719616 -134.86663111 126.53405565 -129 121 C-129 124.69502092 -129.81277183 125.21846157 -132.1875 127.9375 C-135.82185424 132.42182419 -137.80916673 136.94066683 -139.8984375 142.28515625 C-141.58094721 146.43176706 -143.88664 149.69619684 -146.78125 153.0859375 C-152.21251853 159.54079125 -160 169.18904839 -160 178 C-143.66723174 186.13841706 -127.23743408 190.8092397 -109 192 C-109 190.02 -109 188.04 -109 186 C-108.67 186 -108.34 186 -108 186 C-108 188.31 -108 190.62 -108 193 C-106.68 193 -105.36 193 -104 193 C-103.52834677 184.8508803 -104.06082686 177.76091518 -106 169.875 C-108.32735552 160.32075219 -109.43238948 151.43907106 -106 142 C-105.67 142 -105.34 142 -105 142 C-105.01571045 142.56283691 -105.0314209 143.12567383 -105.04760742 143.70556641 C-105.30055786 154.18006243 -105.23932071 163.77944324 -102.671875 173.9765625 C-101.34556999 179.94493503 -101.42057097 186.07714114 -103 192 C-102.22398437 191.83628906 -101.44796875 191.67257813 -100.6484375 191.50390625 C-95.9507922 190.855088 -91.35986339 190.89359613 -86.625 190.9375 C-85.69816406 190.94201172 -84.77132812 190.94652344 -83.81640625 190.95117188 C-81.54420291 190.96288426 -79.27213612 190.97928628 -77 191 C-78.32 190.01 -79.64 189.02 -81 188 C-79.70578125 188.05542969 -78.4115625 188.11085937 -77.078125 188.16796875 C-71.9155885 188.16291537 -67.59720068 186.99258905 -62.75 185.3125 C-61.97398437 185.06822266 -61.19796875 184.82394531 -60.3984375 184.57226562 C-55.40301619 182.8886552 -52.64903729 180.91383468 -49 177 C-46.90234375 176.14453125 -46.90234375 176.14453125 -44.9375 175.8125 C-42.00888213 175.22125073 -39.55506575 174.63524208 -37 173 C-36.67 172.34 -36.34 171.68 -36 171 C-37.03640625 171.04640625 -38.0728125 171.0928125 -39.140625 171.140625 C-40.51038779 171.17815275 -41.88018182 171.21455184 -43.25 171.25 C-43.93191406 171.28351563 -44.61382812 171.31703125 -45.31640625 171.3515625 C-48.68190138 171.41691192 -50.61545014 171.27829266 -53.375 169.28125 C-55.04496207 166.93688017 -55.94042249 165.00256352 -56.75 162.25 C-56.99234375 161.45078125 -57.2346875 160.6515625 -57.484375 159.828125 C-57.65453125 159.22484375 -57.8246875 158.6215625 -58 158 C-55.53191912 160.22879326 -54.85714806 161.36023532 -53.5625 164.625 C-52.45435686 168.03684318 -52.45435686 168.03684318 -50.375 168.640625 C-49.199375 168.81851563 -49.199375 168.81851563 -48 169 C-46.84371094 169.20882812 -45.68742188 169.41765625 -44.49609375 169.6328125 C-38.98177896 170.38857116 -34.06915249 171.01064004 -28.9609375 168.515625 C-26.07200212 166.18061528 -23.55821303 163.69382031 -21 161 C-19.88767916 159.92333474 -18.77025009 158.85192812 -17.6484375 157.78515625 C-14.34084574 154.59938169 -11.09597789 151.39271258 -8 148 C-7.477778 147.44356056 -6.95555599 146.88712112 -6.41750908 146.31381989 C-1.63746719 140.69585124 -1.13877345 136.21629573 -1.22705078 128.99414062 C-1.21642105 127.92007965 -1.20579132 126.84601868 -1.19483948 125.7394104 C-1.16687389 122.21120833 -1.18082649 118.68451139 -1.1953125 115.15625 C-1.18405824 112.70144346 -1.17017581 110.24664769 -1.15377808 107.79187012 C-1.11776601 101.34740179 -1.1173635 94.90340814 -1.12445068 88.4588623 C-1.12536408 81.87613452 -1.09249801 75.29358415 -1.0625 68.7109375 C-1.00866184 55.80725213 -0.9913052 42.90378705 -1 30 C-1.99 30.33 -2.98 30.66 -4 31 C-4 31.66 -4 32.32 -4 33 C-9.75 32.25 -9.75 32.25 -12 30 C-11.34 30 -10.68 30 -10 30 C-9.67 28.35 -9.34 26.7 -9 25 C-6.36 25 -3.72 25 -1 25 C-1.33 23.35 -1.66 21.7 -2 20 C-1.34 20 -0.68 20 0 20 C0 13.4 0 6.8 0 0 Z " fill="#747474" transform="translate(232,58)"/>
<path d="M0 0 C0.59167969 0.08378906 1.18335937 0.16757813 1.79296875 0.25390625 C6.82341014 0.94657119 6.82341014 0.94657119 11.8125 0.3125 C12.534375 0.209375 13.25625 0.10625 14 0 C14.556875 0.598125 15.11375 1.19625 15.6875 1.8125 C21.74494011 7.54251092 34.96346614 6.99275442 43 8 C40.87949338 9.64928293 38.94667366 11.02536559 36.51171875 12.18359375 C32.87998548 14.80996385 31.60962815 18.03735332 29.8125 22.0625 C29.29913086 23.13274414 29.29913086 23.13274414 28.77539062 24.22460938 C24.36336595 33.81112512 23.71850714 43.09911206 23.875 53.54296875 C23.88257324 54.71080399 23.89014648 55.87863922 23.89794922 57.0818634 C23.92221238 60.78389864 23.95947099 64.48560936 24 68.1875 C24.05329991 73.07681482 24.0932142 77.96597202 24.125 82.85546875 C24.14159668 83.96915329 24.15819336 85.08283783 24.17529297 86.23027039 C24.21103988 91.9026124 23.93655008 96.65018511 22 102 C14.39572944 95.02941865 11.49800864 86.53350715 8 77 C5.63404421 76.70088308 5.63404421 76.70088308 3 77 C1.20225479 78.47303394 1.20225479 78.47303394 -0.19140625 80.578125 C-0.74376953 81.32707031 -1.29613281 82.07601562 -1.86523438 82.84765625 C-2.42533203 83.64042969 -2.98542969 84.43320313 -3.5625 85.25 C-4.68619364 86.79877089 -5.81242548 88.34570394 -6.94140625 89.890625 C-7.46621582 90.61185547 -7.99102539 91.33308594 -8.53173828 92.07617188 C-10.18769645 94.24593416 -11.98090573 96.16356218 -14 98 C-14.48740257 72.11350789 -14.48740257 72.11350789 -10.94921875 64.83984375 C-6.54416633 51.66094206 -9.76926179 34.39495107 -15.71459961 22.29492188 C-16.6437032 20.46142861 -17.60491895 18.64841134 -18.57421875 16.8359375 C-20 14 -20 14 -20 12 C-22.97 11.01 -25.94 10.02 -29 9 C-25.95026095 6.96684064 -24.9960408 6.7119608 -21.5078125 6.47265625 C-20.63769531 6.40240234 -19.76757812 6.33214844 -18.87109375 6.25976562 C-17.0484131 6.12883337 -15.22549237 6.00119926 -13.40234375 5.87695312 C-8.57371252 5.48110522 -4.90653878 5.15528132 -1 2 C-0.67 1.34 -0.34 0.68 0 0 Z " fill="#F8F9F9" transform="translate(122,73)"/>
<path d="M0 0 C3.6204657 1.596762 6.44429757 3.8150509 9.5 6.3125 C10.4384375 7.07175781 11.376875 7.83101562 12.34375 8.61328125 C14.8957206 10.90630189 16.94458765 13.26106609 19 16 C18.67 16.66 18.34 17.32 18 18 C15.69 18 13.38 18 11 18 C11.2165625 19.04800781 11.2165625 19.04800781 11.4375 20.1171875 C11.623125 21.02726562 11.80875 21.93734375 12 22.875 C12.185625 23.77992187 12.37125 24.68484375 12.5625 25.6171875 C13 28 13 28 13 30 C11.80375 30.495 10.6075 30.99 9.375 31.5 C5.07147704 33.40361205 1.00474865 35.64273346 -3.0625 38 C-27.65680511 52.20348678 -27.65680511 52.20348678 -42 51 C-43.39432305 50.92690357 -44.78888495 50.85829251 -46.18359375 50.79296875 C-60.70693353 50.07326662 -60.70693353 50.07326662 -65 49 C-65.66 48.01 -66.32 47.02 -67 46 C-67.67546875 46.09539062 -68.3509375 46.19078125 -69.046875 46.2890625 C-69.93890625 46.39992187 -70.8309375 46.51078125 -71.75 46.625 C-72.63171875 46.74101563 -73.5134375 46.85703125 -74.421875 46.9765625 C-77.22859878 47.00207817 -78.63384866 46.44843844 -81 45 C-81.226875 45.639375 -81.45375 46.27875 -81.6875 46.9375 C-83 49 -83 49 -85.625 49.75 C-86.40875 49.8325 -87.1925 49.915 -88 50 C-88 49.34 -88 48.68 -88 48 C-86.35 47.34 -84.7 46.68 -83 46 C-83.12375 44.741875 -83.2475 43.48375 -83.375 42.1875 C-83.47941406 41.12595703 -83.47941406 41.12595703 -83.5859375 40.04296875 C-83.92665391 37.70011858 -83.92665391 37.70011858 -86 35 C-86.1171875 32.2578125 -86.1171875 32.2578125 -85.875 29.125 C-85.81054688 28.09632812 -85.74609375 27.06765625 -85.6796875 26.0078125 C-85 23 -85 23 -81 18 C-105.75 18 -130.5 18 -156 18 C-156 17.67 -156 17.34 -156 17 C-99.24 16.67 -42.48 16.34 16 16 C10.555 10.555 10.555 10.555 5 5 C3.35 3.35 1.7 1.7 0 0 Z " fill="#8C8C8C" transform="translate(203,28)"/>
<path d="M0 0 C0.33 0 0.66 0 1 0 C1 43.56 1 87.12 1 132 C-8.59259105 122.40740895 -12.96498088 105.96642803 -16 93 C-16.16226074 92.31228516 -16.32452148 91.62457031 -16.49169922 90.91601562 C-23.55586663 59.74328099 -16.44058532 27.15187576 0 0 Z " fill="#FDFDFD" transform="translate(24,61)"/>
<path d="M0 0 C3.16481717 3.95602146 5.37944186 7.36251259 7.4375 11.875 C7.88754395 12.85521118 7.88754395 12.85521118 8.34667969 13.85522461 C14.72342348 28.06678835 19.22805236 43.38460209 20 59 C20.07605469 60.16015625 20.15210938 61.3203125 20.23046875 62.515625 C21.33002771 86.78424687 13.4952035 111.36398209 1 132 C0.67 132 0.34 132 0 132 C0 88.44 0 44.88 0 0 Z " fill="#FDFDFD" transform="translate(233,61)"/>
<path d="M0 0 C1.65 1.65 3.3 3.3 5 5 C6.57348413 6.42759819 8.15690089 7.84432432 9.75 9.25 C14.00287004 13.04652631 18.03342407 17.0084107 22.03515625 21.06640625 C24.23033785 23.22667443 26.570378 25.110294 29 27 C29.73605469 27.77859375 30.47210938 28.5571875 31.23046875 29.359375 C44.38694271 41.90348839 65.55742885 48.00759502 83 51 C83 51.33 83 51.66 83 52 C55.61 52 28.22 52 0 52 C0 34.84 0 17.68 0 0 Z " fill="#F8F8F8" transform="translate(26,199)"/>
<path d="M0 0 C0.33 0 0.66 0 1 0 C2.73225833 6.49596876 2.23741288 13.32185298 1.5 19.9375 C1.3312705 21.62479499 1.16459031 23.31229622 1 25 C0.86271484 26.15628906 0.86271484 26.15628906 0.72265625 27.3359375 C0.22252948 35.06960509 2.48977761 41.9389616 4.86547852 49.2121582 C7.05214093 56.13972813 8.76265671 63.32779851 5.5 70.125 C5.005 70.74375 4.51 71.3625 4 72 C-10.07476829 71.24599456 -22.77877908 65.62619322 -35 59 C-32.71518839 48.90493376 -26.86929492 39.28927151 -19.75 31.93359375 C-16.52068914 28.36549358 -14.74817419 24.22562929 -13.2265625 19.69921875 C-10.47420499 11.78303453 -5.68878515 6.03073398 0 0 Z " fill="#FCFCFC" transform="translate(106,177)"/>
<path d="M0 0 C0.33 0 0.66 0 1 0 C1 17.16 1 34.32 1 52 C-24.08 52 -49.16 52 -75 52 C-72.47793344 48.21690016 -71.2094525 48.29658762 -66.875 47.25 C-48.62400448 42.30468935 -33.42067696 33.13002791 -19 21 C-18.38898438 20.52304688 -17.77796875 20.04609375 -17.1484375 19.5546875 C-10.88364159 14.54857205 -6.00086328 8.11586294 -1.296875 1.6640625 C-0.86890625 1.11492187 -0.4409375 0.56578125 0 0 Z " fill="#F8F8F8" transform="translate(231,199)"/>
<path d="M0 0 C24.42 0 48.84 0 74 0 C72.35 1.98 70.7 3.96 69 6 C68.34 6.99 67.68 7.98 67 9 C64.48416622 9.72006925 62.0569604 10.29766989 59.5 10.8125 C53.29956869 12.19459882 48.50055215 14.0621319 43.16796875 17.6171875 C40.49980028 19.31904631 37.8318306 20.34570065 34.84375 21.34765625 C32.72824473 22.05085132 32.72824473 22.05085132 29.8125 23.625 C25.42281652 25.58720875 20.76217179 25.43020057 16.02734375 25.6796875 C12.50752738 26.05210678 10.0768075 27.30775588 7 29 C4.125 28.6875 4.125 28.6875 2 28 C1.3125 25.375 1.3125 25.375 1 22 C1.515625 21.154375 2.03125 20.30875 2.5625 19.4375 C4.84752474 13.97331039 3.42182307 8.63463216 2 3 C1.34 2.01 0.68 1.02 0 0 Z " fill="#FDFDFD" transform="translate(136,47)"/>
<path d="M0 0 C24.42 0 48.84 0 74 0 C73.01 1.32 72.02 2.64 71 4 C69.5217717 10.71751849 69.3566177 16.02485303 73 22 C73.3125 24.75 73.3125 24.75 73 27 C72.34 27.66 71.68 28.32 71 29 C68.26375417 28.69597269 65.94626761 27.97953052 63.375 27 C60.37441145 26.11093673 58.14640353 25.84740611 55.0625 25.6875 C45.69418853 24.96784919 36.19622501 22.12288976 29 16 C23.96411671 13.07879426 18.87907222 11.71732194 13.1875 10.625 C7.33730797 9.38549482 7.33730797 9.38549482 4.375 6 C3.694375 4.515 3.694375 4.515 3 3 C2.01 2.01 1.02 1.02 0 0 Z " fill="#FDFDFD" transform="translate(48,47)"/>
<path d="M0 0 C2.42464734 2.42464734 2.74467996 4.15682755 3.6875 7.4375 C5.50687303 13.16439011 8.09418411 17.70726278 11.51171875 22.625 C13.29877088 25.47677873 14.3359894 27.48158637 13.59375 30.8359375 C13.3978125 31.55007812 13.201875 32.26421875 13 33 C12.70090186 36.36485409 12.4933804 39.73020433 12.28125 43.1015625 C12 46 12 46 11 48 C10.84724364 49.53900673 10.75063176 51.08379068 10.68359375 52.62890625 C10.62002686 54.04647217 10.62002686 54.04647217 10.55517578 55.49267578 C10.39547735 59.65875054 10.24021141 63.82478256 10.10400391 67.99169922 C10.01018209 70.70548418 9.88821502 73.41650331 9.76171875 76.12890625 C9.71393546 77.62753532 9.6682159 79.12623227 9.625 80.625 C9.55152344 82.59339844 9.55152344 82.59339844 9.4765625 84.6015625 C10.1399811 88.9088325 11.67865398 90.28890129 15 93 C18.41652875 95.27768584 21.96962251 95.53495644 26 96 C26 96.99 26 97.98 26 99 C17.42 99 8.84 99 0 99 C0.061875 96.81375 0.12375 94.6275 0.1875 92.375 C0.25951342 87.02024597 -0.22409101 82.23541998 -1.5 77 C-3.44062714 68.9445666 -4.03467968 60.48879526 -2.48901367 52.28930664 C-1.92561255 48.49963948 -1.91165589 44.81392131 -1.97265625 40.99609375 C-1.98531632 39.43424712 -1.99767624 37.87239803 -2.00976562 36.31054688 C-2.03438666 33.88427784 -2.06221298 31.45814244 -2.09594727 29.03198242 C-2.22484888 19.11467763 -1.93666813 9.7680631 0 0 Z " fill="#FAFAFA" transform="translate(129,151)"/>
<path d="M0 0 C0.28101563 0.56847656 0.56203125 1.13695312 0.8515625 1.72265625 C1.5963225 3.19951027 2.36091697 4.66659155 3.1484375 6.12109375 C5.63457696 10.81625521 7.45907276 15.3108669 8.875 20.4375 C11.59391919 29.68832465 16.8627206 36.55741536 22.75 44.0625 C26.6462481 49.1402339 28.79282177 53.72822347 30 60 C21.45254075 63.76578635 14.70746609 65.83174179 5.37109375 63.9609375 C1.76282012 62.49860585 -1.35838613 60.91838 -4 58 C-4.59025001 54.7921195 -4.72248499 52.66633334 -4.5 49.5 C-4.4695459 48.68063965 -4.4390918 47.8612793 -4.40771484 47.01708984 C-4.33786828 45.26298107 -4.25190098 43.50945372 -4.15136719 41.75683594 C-3.9958189 38.9238501 -3.90194527 36.0938309 -3.8203125 33.2578125 C-3.75725148 31.3801386 -3.69219583 29.50253047 -3.625 27.625 C-3.59470703 26.74005859 -3.56441406 25.85511719 -3.53320312 24.94335938 C-3.32255839 20.47147528 -2.78206177 17.14190139 -1 13 C-0.71878758 10.73703593 -0.51295111 8.46369338 -0.375 6.1875 C-0.30023438 5.02605469 -0.22546875 3.86460937 -0.1484375 2.66796875 C-0.09945312 1.78753906 -0.05046875 0.90710938 0 0 Z " fill="#FCFCFC" transform="translate(144,182)"/>
<path d="M0 0 C5.78515264 6.88421086 7.92076186 13.91647177 9.5 22.6875 C10.50405465 28.48660762 10.50405465 28.48660762 13.0625 33.6875 C15.04703466 37.08041409 15.39533807 38.98489472 15.875 42.8125 C16.64283885 48.26146168 18.33784522 51.62313608 21.34765625 56.15625 C23.77203409 60.3287017 25.30698268 64.75181585 26.90722656 69.29199219 C29.0451167 76.73218598 29.0451167 76.73218598 34 82 C36.54615009 82.23172827 39.07396225 82.41894529 41.625 82.5625 C42.68460938 82.62727539 42.68460938 82.62727539 43.765625 82.69335938 C45.51018537 82.79944751 47.25506697 82.90022889 49 83 C48 86 48 86 45.375 87.5625 C42 89 42 89 38.375 89.9375 C34.92518863 90.73783494 34.92518863 90.73783494 32.8125 93.1875 C32.214375 93.785625 31.61625 94.38375 31 95 C28.9609375 94.84765625 28.9609375 94.84765625 27 94 C26.34757253 91.93970273 25.70400933 89.87624367 25.1015625 87.80078125 C23.74292931 84.34638409 21.81794821 81.44910786 19.6875 78.4375 C19.28789062 77.87023193 18.88828125 77.30296387 18.4765625 76.71850586 C16.8248997 74.41294815 15.14570769 72.16832897 13.2890625 70.0234375 C8.79668266 64.8179815 7.05767185 58.9196709 5.09106445 52.43286133 C3.80517609 48.20831468 2.3714931 44.76098765 0 41 C-1.0033292 38.03037622 -1.13484099 35.31201387 -1.125 32.1875 C-1.12757813 31.37667969 -1.13015625 30.56585938 -1.1328125 29.73046875 C-1 27 -1 27 -0.49609375 23.828125 C0.12348648 19.04711218 0.10755402 14.37634917 0.0625 9.5625 C0.05798828 8.64017578 0.05347656 7.71785156 0.04882812 6.76757812 C0.03713938 4.51164952 0.02075455 2.25586033 0 0 Z " fill="#FAFAFA" transform="translate(147,146)"/>
<path d="M0 0 C0.66 0 1.32 0 2 0 C2.44546841 8.61238932 0.80020051 16.7055058 -1.56640625 24.98046875 C-2.20813435 27.96941856 -2.31912647 30.950989 -2.5 34 C-2.89409977 40.64339615 -2.89409977 40.64339615 -3.50708008 42.70751953 C-4.24007641 46.11655152 -4.16278237 49.52116175 -4.16796875 52.9921875 C-4.17129715 53.77457794 -4.17462555 54.55696838 -4.17805481 55.36306763 C-4.1831138 57.02231257 -4.18546345 58.68156767 -4.18530273 60.34082031 C-4.18746234 62.83156121 -4.20555324 65.32183901 -4.22460938 67.8125 C-4.25415894 76.48058883 -3.87355257 84.75202299 -2.4309082 93.31689453 C-2 96 -2 96 -2 99 C-5.63 99 -9.26 99 -13 99 C-12 94 -12 94 -11 91 C-10.18200658 83.91072372 -12.45669521 77.97185951 -14.80859375 71.390625 C-17.60899666 63.42095376 -17.55260069 55.42998339 -17.73461914 47.06005859 C-17.78596685 45.20735598 -17.86064111 43.35513238 -17.96020508 41.50439453 C-18.65377101 28.34436499 -16.93057113 20.42269134 -8.0847168 10.43652344 C-7.56726898 9.87509644 -7.04982117 9.31366943 -6.51669312 8.73522949 C-4.93400346 6.92449419 -3.58881968 5.0409312 -2.23364258 3.05566406 C-1.49654053 2.04729492 -0.75943848 1.03892578 0 0 Z " fill="#FBFBFB" transform="translate(125,151)"/>
<path d="M0 0 C2.85423106 9.62995257 3.04357787 25.36311175 -1.14892578 34.50537109 C-3.80783975 38.38612151 -7.14751636 41.44851831 -10.61914062 44.59130859 C-13.94418223 47.98336837 -15.35093377 52.63728047 -17 57 C-19.03098426 61.78035159 -21.37032961 65.54058108 -24.75 69.5 C-30.13892032 75.96265257 -33.46614224 83.42476236 -37 91 C-40.95008059 90.31620454 -43.63457018 89.21156817 -47 87 C-45.93815189 84.20058226 -45.35771628 83.17885814 -42.625 81.8125 C-36.43698058 77.53981992 -35.60940568 69.49199626 -34.125 62.5625 C-31.97063059 52.62366138 -27.59813239 45.63994277 -21 38 C-16.50039935 31.7278294 -13.42909824 25.57540764 -11.25 18.1875 C-9.06227957 11.28168369 -5.14188208 5.14188208 0 0 Z " fill="#F9F9F9" transform="translate(107,143)"/>
<path d="M0 0 C2 3 2 3 3.25 5.375 C6.35044516 10.02566774 9.62125005 12.74823448 14.9375 14.25 C19.57247935 15.59991823 23.26531601 17.88444868 27.3125 20.4375 C32.90332182 23.9536605 38.184533 26.4105704 44.609375 28.1484375 C47.16730036 29.05959392 48.18052522 30.05093863 50 32 C45.01970985 32.17409588 40.04121999 32.30055003 35.05859375 32.38452148 C33.36687337 32.41955043 31.67536226 32.46719144 29.984375 32.52807617 C14.11012879 33.08498516 14.11012879 33.08498516 9.03125 28.53515625 C8.49048828 27.90101807 7.94972656 27.26687988 7.39257812 26.61352539 C5.99264174 24.71333967 5.99264174 24.71333967 3 24 C3.99 25.98 4.98 27.96 6 30 C1.71 30 -2.58 30 -7 30 C-8.20596483 9.03918263 -8.20596483 9.03918263 -3.5 3.1875 C-1.53125 1.23046875 -1.53125 1.23046875 0 0 Z " fill="#F9F9F9" transform="translate(34,48)"/>
<path d="M0 0 C3.88573336 1.52653811 5.82235195 3.44317485 8 7 C8.48592048 10.45202932 8.37778411 13.83529785 8.25 17.3125 C8.23195312 18.24384766 8.21390625 19.17519531 8.1953125 20.13476562 C8.14836161 22.42362149 8.07662323 24.71194527 8 27 C4.37 27 0.74 27 -3 27 C-2.67 25.35 -2.34 23.7 -2 22 C-3.051875 22.5775 -4.10375 23.155 -5.1875 23.75 C-5.77917969 24.07484375 -6.37085938 24.3996875 -6.98046875 24.734375 C-9.13210058 25.98626313 -9.13210058 25.98626313 -11.13085938 28.0546875 C-14.77030204 30.52227422 -17.6880218 30.5124928 -21.92578125 30.390625 C-22.67337204 30.38496521 -23.42096283 30.37930542 -24.19120789 30.37347412 C-26.56563911 30.35118468 -28.93852938 30.30100656 -31.3125 30.25 C-32.92771249 30.22992519 -34.54294877 30.21167613 -36.15820312 30.1953125 C-40.10605733 30.15134486 -44.05276792 30.08237261 -48 30 C-45.28789375 27.09275682 -43.04076048 26.14801658 -39.25 24.875 C-33.10036129 22.62379297 -27.85561215 19.64550548 -22.32739258 16.16430664 C-18.23566795 13.62573894 -14.47004064 12.01970003 -9.8671875 10.734375 C-5.62027657 9.06404183 -2.86914208 5.5012454 -0.625 1.625 C-0.41875 1.08875 -0.2125 0.5525 0 0 Z " fill="#FBFBFB" transform="translate(223,50)"/>
<path d="M0 0 C0 0.66 0 1.32 0 2 C2.59427088 3.29713544 4.29059758 2.95714965 7.1875 2.8125 C12.14252108 2.75279173 16.10711748 3.48401971 20.82421875 4.96484375 C29.40361873 7.44764046 37.74676266 7.66684509 46.625 7.75 C48.15237579 7.77826669 49.67972152 7.80820825 51.20703125 7.83984375 C56.80450393 7.94874013 62.40139431 8.01341626 68 8 C67.01 5.525 67.01 5.525 66 3 C69.39632977 6.04346434 71.22347879 8.99342249 73.125 13.125 C73.62257813 14.17945312 74.12015625 15.23390625 74.6328125 16.3203125 C77.6990895 24.57297801 78.32175079 32.56488277 78.25 41.3125 C78.26160156 42.75592773 78.26160156 42.75592773 78.2734375 44.22851562 C78.26022137 49.0028438 78.0709219 52.62805377 76 57 C75.57426894 59.09449169 75.19999506 61.20003211 74.875 63.3125 C74.70742187 64.38113281 74.53984375 65.44976562 74.3671875 66.55078125 C74.18542969 67.76314453 74.18542969 67.76314453 74 69 C73.34 68.67 72.68 68.34 72 68 C72 65.69 72 63.38 72 61 C66.44682388 67.95998074 62.75806674 74.42319812 60.125 82.9375 C57.85104841 89.95250895 54.30201706 95.09345324 49.75390625 100.8359375 C43.64183617 108.64413212 40.25730666 115.44553424 38.0546875 125.0703125 C37.80585815 126.13717285 37.80585815 126.13717285 37.55200195 127.22558594 C37.23378144 128.62289936 36.93434078 130.02466924 36.65698242 131.43066406 C35.57309135 136.3413791 33.76827859 138.746103 30 142 C28.6078125 143.3921875 28.6078125 143.3921875 27.1875 144.8125 C26.465625 145.534375 25.74375 146.25625 25 147 C26.0828125 147.433125 26.0828125 147.433125 27.1875 147.875 C29.79166667 148.91666667 32.39583333 149.95833333 35 151 C35.26554687 150.13890625 35.53109375 149.2778125 35.8046875 148.390625 C38.54662528 140.61284072 42.58946068 133.40856759 48 127.1875 C51.51475626 123.0520958 53.44802361 118.97744035 55.4375 114 C58.40575083 106.57719616 62.13336889 101.53405565 68 96 C68 99.69502092 67.18722817 100.21846157 64.8125 102.9375 C61.17814576 107.42182419 59.19083327 111.94066683 57.1015625 117.28515625 C55.41905279 121.43176706 53.11336 124.69619684 50.21875 128.0859375 C44.78748147 134.54079125 37 144.18904839 37 153 C39.1032567 153.98111975 41.20763689 154.95983134 43.3125 155.9375 C44.48425781 156.48277344 45.65601563 157.02804688 46.86328125 157.58984375 C49.93693062 159.03484939 49.93693062 159.03484939 53 160 C53 160.66 53 161.32 53 162 C41.12376939 158.60679125 29.50180189 152.91816824 20 145 C20.60585938 144.87753906 21.21171875 144.75507813 21.8359375 144.62890625 C24.79526103 143.76888623 26.63353615 141.9305363 29 140 C29.66 140 30.32 140 31 140 C31.39889247 138.70927478 31.79372013 137.41729417 32.1875 136.125 C32.4659375 135.21878906 32.744375 134.31257812 33.03125 133.37890625 C33.76296276 130.82676296 34.41882444 128.295537 35.03125 125.71484375 C37.44658988 115.82130064 40.46686762 108.97389922 47 101 C51.099711 95.14089885 54.410059 89.41392545 56.92578125 82.7265625 C60.76450856 72.98317464 65.31078144 64.97951144 72.1796875 57.109375 C77.90792847 50.4714992 75.42008825 37.29992549 75 29 C74.24903166 22.37742537 71.98465498 16.90861541 69 11 C67.96294922 10.9906543 66.92589844 10.98130859 65.85742188 10.97167969 C61.92814579 10.93113972 57.99960143 10.86522215 54.07080078 10.79248047 C52.38567665 10.76463511 50.70043074 10.74324396 49.01513672 10.72900391 C38.71873767 10.63690731 29.4990301 9.8157035 19.61401367 6.83032227 C11.81992653 5.03962508 3.74267108 6.32315033 -4 8 C-4 7.01 -4 6.02 -4 5 C-4.99 5 -5.98 5 -7 5 C-5.22678182 1.07358831 -4.52021524 0 0 0 Z " fill="#909090" transform="translate(35,83)"/>
<path d="M0 0 C3.88708698 3.88708698 6.45817006 6.9166115 8.9375 11.625 C9.27740967 12.27033691 9.61731934 12.91567383 9.9675293 13.58056641 C25.03423903 43.41696554 25.9584152 79.20597444 15.875 110.6875 C12.69821876 120.12800065 8.25909792 128.56874778 3 137 C2.01 136.67 1.02 136.34 0 136 C-0.33 136.99 -0.66 137.98 -1 139 C-1 103.03 -1 67.06 -1 30 C-1.99 30.33 -2.98 30.66 -4 31 C-4 31.66 -4 32.32 -4 33 C-9.75 32.25 -9.75 32.25 -12 30 C-11.34 30 -10.68 30 -10 30 C-9.67 28.35 -9.34 26.7 -9 25 C-6.36 25 -3.72 25 -1 25 C-1.33 23.35 -1.66 21.7 -2 20 C-1.34 20 -0.68 20 0 20 C0 13.4 0 6.8 0 0 Z M1 3 C1 46.56 1 90.12 1 135 C4.76496984 130.2937877 7.01273637 126.28068954 9.4375 120.875 C9.83074463 119.9984375 10.22398926 119.121875 10.62915039 118.21875 C14.46617761 109.37783396 16.96651859 100.40090631 19 91 C19.24492187 89.92492187 19.48984375 88.84984375 19.7421875 87.7421875 C25.46902236 58.9511136 16.40839684 27.89498152 2 3 C1.67 3 1.34 3 1 3 Z " fill="#919392" transform="translate(232,58)"/>
<path d="M0 0 C0.99 3.96 0.99 3.96 2 8 C0.80375 8.495 -0.3925 8.99 -1.625 9.5 C-5.92852296 11.40361205 -9.99525135 13.64273346 -14.0625 16 C-39.15640443 30.49201098 -39.15640443 30.49201098 -53 29 C-53.68658691 28.92797363 -54.37317383 28.85594727 -55.08056641 28.78173828 C-60.06242291 28.25085887 -65.03178419 27.64552224 -70 27 C-66.06055812 23.87561506 -63.43764994 22.89054085 -58.4375 23.1875 C-52.59018291 23.25569029 -48.234086 21.42727428 -43 19 C-41.75085477 18.49786835 -40.5009458 17.99762899 -39.25 17.5 C-35.97849954 16.12319898 -35.97849954 16.12319898 -33.3359375 14.03125 C-28.76882279 11.25033706 -24.30023375 10.54282688 -19.1015625 9.578125 C-12.96552786 8.31610369 -10.5144237 6.27163554 -7 1 C-4.59258404 0.33796061 -2.49346035 0 0 0 Z " fill="#F8F8F8" transform="translate(214,50)"/>
<path d="M0 0 C2.475 0.99 2.475 0.99 5 2 C5.33 1.34 5.66 0.68 6 0 C6.65742187 1.11375 7.31484375 2.2275 7.9921875 3.375 C10.59232077 7.00751226 12.60647073 7.92405716 16.92553711 8.68188477 C17.65135986 8.78686279 18.37718262 8.89184082 19.125 9 C26.0007816 10.27916398 30.74306744 12.28354506 36.5 16.390625 C39.78620326 18.50611835 43.0377563 19.46890558 46.80859375 20.39453125 C49 21 49 21 50.87890625 22.046875 C54.66384455 23.74765759 58.81064659 23.41299317 62.90625 23.55859375 C66.19330799 24.02758056 67.58898757 24.78399593 70 27 C44.18253253 30.66948776 44.18253253 30.66948776 32 25 C30.35595048 24.39099597 28.71009002 23.78685952 27.0625 23.1875 C22.23570212 21.27186459 18.13711403 18.60551356 13.8203125 15.74609375 C9.42154359 13.02275621 4.74883959 11.02684159 0 9 C-0.66 8.67 -1.32 8.34 -2 8 C-1.34 5.36 -0.68 2.72 0 0 Z " fill="#F9F9F9" transform="translate(44,50)"/>
<path d="M0 0 C0.66 0 1.32 0 2 0 C2.495 1.485 2.495 1.485 3 3 C3.99 3.2475 3.99 3.2475 5 3.5 C5.99 3.7475 5.99 3.7475 7 4 C8 7 8 7 7.0625 9.1875 C6.711875 9.785625 6.36125 10.38375 6 11 C5.23558594 10.95359375 4.47117187 10.9071875 3.68359375 10.859375 C-2.59148461 10.64794035 -7.85405668 11.07256287 -13.859375 12.9609375 C-21.70524668 15.23368532 -29.30330676 15.71413938 -37.43823242 15.83886719 C-39.72487338 15.87560038 -42.00913894 15.94377709 -44.29492188 16.015625 C-56.40792035 16.3098839 -56.40792035 16.3098839 -60 14 C-55.6159903 8.93098879 -50.96845759 6.4801125 -44.265625 5.66918945 C-41.17544821 5.47988547 -38.09523403 5.37849596 -35 5.3125 C-33.90018799 5.27761475 -32.80037598 5.24272949 -31.66723633 5.20678711 C-24.11082784 4.98608533 -16.56835752 4.95939539 -9.01171875 5.16015625 C-6.00741486 5.0003943 -4.45091009 4.69937244 -2 3 C-1.34 2.01 -0.68 1.02 0 0 Z " fill="#FBFBFB" transform="translate(215,76)"/>
<path d="M0 0 C3.51855159 1.40742064 4.38612834 2.66466523 6 6 C9.21979668 7.07326556 11.49320886 7.09970797 14.875 7.0625 C16.02484375 7.05476563 17.1746875 7.04703125 18.359375 7.0390625 C20.16148438 7.01972656 20.16148438 7.01972656 22 7 C24.37495467 6.97451765 26.74996236 6.95347559 29.125 6.9375 C30.17945313 6.92589844 31.23390625 6.91429688 32.3203125 6.90234375 C35 7 35 7 38 8 C40.02155903 7.96881185 42.04266356 7.90157503 44.0625 7.8125 C50.98556682 7.75061784 57.37190196 8.90732612 62.7734375 13.51171875 C64 15 64 15 64 17 C57.71781264 18.53780359 51.33350661 18.03567656 44.92041016 17.86791992 C42.66694639 17.81351275 40.41407484 17.78432419 38.16015625 17.75585938 C29.41300351 17.57323253 21.69910524 16.48922752 13.33911133 13.87084961 C8.22133382 12.53611887 3.24530077 12.64835972 -2 13 C-2.33 10.69 -2.66 8.38 -3 6 C-1.35 5.34 0.3 4.68 2 4 C1.34 2.68 0.68 1.36 0 0 Z " fill="#FBFBFB" transform="translate(39,74)"/>
<path d="M0 0 C3.96 0.33 7.92 0.66 12 1 C12.13137381 12.03540017 11.6150178 22.98459186 11 34 C10.34 34 9.68 34 9 34 C9 34.66 9 35.32 9 36 C9.66 36.33 10.32 36.66 11 37 C10.505 37.99 10.505 37.99 10 39 C7.36 39 4.72 39 2 39 C1.67 38.01 1.34 37.02 1 36 C-0.65 35.67 -2.3 35.34 -4 35 C-4 34.01 -4 33.02 -4 32 C-5.1446875 33.2065625 -5.1446875 33.2065625 -6.3125 34.4375 C-10.43736007 38.37050612 -14.08569813 38.19252721 -19.5 38.1875 C-20.56444336 38.1884668 -20.56444336 38.1884668 -21.65039062 38.18945312 C-27.58283708 38.13050379 -33.2213934 37.37119479 -39 36 C-39 35.67 -39 35.34 -39 35 C-38.22922119 35.03665771 -37.45844238 35.07331543 -36.66430664 35.11108398 C-33.13078678 35.25768437 -29.59790795 35.34797287 -26.0625 35.4375 C-24.24395508 35.52547852 -24.24395508 35.52547852 -22.38867188 35.61523438 C-14.67781343 35.76151082 -10.41249032 34.92741417 -4.76733398 29.51586914 C-3 28 -3 28 0 28 C0 29.32 0 30.64 0 32 C3.3 32.33 6.6 32.66 10 33 C9.9668652 29.78893683 9.89954976 26.58468086 9.8125 23.375 C9.80669922 22.47136719 9.80089844 21.56773438 9.79492188 20.63671875 C9.64773663 16.1557457 9.43869146 12.93031246 6.57421875 9.3515625 C4.33499642 6.77518157 4.33499642 6.77518157 2 7 C1.608125 7.70125 1.21625 8.4025 0.8125 9.125 C-2.34555387 14.13432683 -6.23603254 17.69206387 -12 19.3125 C-16.54671584 20.60382916 -20.28004286 22.87847576 -24.25 25.375 C-30.91842939 29.55069289 -37.51780872 32.48911287 -45 35 C-43.68 35.66 -42.36 36.32 -41 37 C-45.8333472 37.08333357 -50.23692563 36.95261487 -55 36 C-55.33 36.66 -55.66 37.32 -56 38 C-56.99 37.86722656 -57.98 37.73445313 -59 37.59765625 C-65.66349336 36.70559299 -72.32681287 35.81712495 -79 35 C-77 33 -77 33 -74.51660156 32.9440918 C-72.96924316 33.07037964 -72.96924316 33.07037964 -71.390625 33.19921875 C-69.67927368 33.31595947 -69.67927368 33.31595947 -67.93334961 33.43505859 C-66.11009155 33.56001709 -66.11009155 33.56001709 -64.25 33.6875 C-53.52113274 34.2565775 -45.66242122 34.03477286 -36 29 C-35.1440625 28.61457031 -34.288125 28.22914062 -33.40625 27.83203125 C-28.47782554 25.54717624 -23.9512988 22.72343992 -19.375 19.8125 C-14.54902469 16.77984569 -10.61830718 14.88130309 -5 14 C-5.2165625 13.07767578 -5.2165625 13.07767578 -5.4375 12.13671875 C-5.623125 11.32847656 -5.80875 10.52023438 -6 9.6875 C-6.185625 8.88699219 -6.37125 8.08648437 -6.5625 7.26171875 C-7 5 -7 5 -7 2 C-4.69 2 -2.38 2 0 2 C0 1.34 0 0.68 0 0 Z " fill="#8B8B8B" transform="translate(221,44)"/>
<path d="M0 0 C3.0625 1.6875 3.0625 1.6875 5 5 C5.88729221 11.65038432 6.09881727 18.38310225 2 24 C-1.48868651 26.32579101 -2.89718519 26.41865457 -7 26 C-10.67404019 24.06092323 -11.79197084 21.90286345 -13 18 C-14.43057222 13.31812729 -14.1018901 8.72490475 -13 4 C-10.04234082 -1.05266776 -5.31978963 -1.02230833 0 0 Z " fill="#F9F9F9" transform="translate(133,47)"/>
<path d="M0 0 C2.64 0.33 5.28 0.66 8 1 C7.35699811 2.48039971 6.71051501 3.95928782 6.0625 5.4375 C5.70285156 6.26121094 5.34320312 7.08492187 4.97265625 7.93359375 C4 10 4 10 3 11 C2.84313751 12.55948542 2.74923361 14.12542668 2.68359375 15.69140625 C2.64169922 16.63564453 2.59980469 17.57988281 2.55664062 18.55273438 C2.51732422 19.54595703 2.47800781 20.53917969 2.4375 21.5625 C2.39431641 22.55958984 2.35113281 23.55667969 2.30664062 24.58398438 C2.20019833 27.05581111 2.09956241 29.5278866 2 32 C5.96 31.67 9.92 31.34 14 31 C13.34 30.34 12.68 29.68 12 29 C12 28.01 12 27.02 12 26 C13.32 26.33 14.64 26.66 16 27 C16 29 16 31 16 33 C13.525 33.495 13.525 33.495 11 34 C11.33 35.98 11.66 37.96 12 40 C10.02 40 8.04 40 6 40 C7.98 39.505 7.98 39.505 10 39 C10 38.34 10 37.68 10 37 C5.76915097 38.68807908 5.76915097 38.68807908 3 42 C2.89632139 43.45679137 2.85353219 44.91814176 2.84178162 46.37857056 C2.8319928 47.29846268 2.82220398 48.2183548 2.81211853 49.16612244 C2.80636307 50.17816238 2.8006076 51.19020233 2.79467773 52.23291016 C2.77982834 53.82805702 2.77982834 53.82805702 2.76467896 55.45542908 C2.7329992 58.98328395 2.70828093 62.51115232 2.68359375 66.0390625 C2.66302982 68.48001462 2.6420335 70.92096314 2.62062073 73.36190796 C2.56534217 79.79643845 2.51595842 86.23100138 2.46777344 92.66558838 C2.4176006 99.22760923 2.36189255 105.78958279 2.30664062 112.3515625 C2.19898832 125.23433435 2.09737125 138.11714655 2 151 C1.67 151 1.34 151 1 151 C1.00092179 150.42114768 1.00184359 149.84229536 1.00279331 149.24590206 C1.0249747 135.09552786 1.04147265 120.94515629 1.05181217 106.79476833 C1.05694647 99.95147002 1.06393386 93.10818339 1.07543945 86.26489258 C1.08655347 79.65129182 1.09229739 73.03769993 1.09487724 66.42408943 C1.09671399 63.91055168 1.10030045 61.39701454 1.10573006 58.88348198 C1.94221229 37.76293132 1.94221229 37.76293132 -1 17 C-10.10880091 32.73828323 -14.88384103 48.10958146 -18 66 C-20.78890065 61.81664902 -19.79922962 59.55225364 -18.875 54.7578125 C-15.69189947 41.08753253 -11.25596719 23.25596719 -1 13 C-0.76518307 10.81707226 -0.58636677 8.62796826 -0.4375 6.4375 C-0.35371094 5.23996094 -0.26992188 4.04242188 -0.18359375 2.80859375 C-0.09271484 1.41833984 -0.09271484 1.41833984 0 0 Z " fill="#A4A4A5" transform="translate(25,46)"/>
<path d="M0 0 C2.61726784 2.61726784 2.25734101 3.77389901 2.265625 7.41796875 C2.26820312 8.50787109 2.27078125 9.59777344 2.2734375 10.72070312 C2.26570313 11.86474609 2.25796875 13.00878906 2.25 14.1875 C2.25773437 15.31220703 2.26546875 16.43691406 2.2734375 17.59570312 C2.25953067 23.50958421 1.86121553 28.40192539 0 34 C-1.0176321 42.105558 0.69522874 49.39025917 2.63818359 57.18432617 C4.31415272 64.35476448 4.08079899 70.69285902 3 78 C1.68 78 0.36 78 -1 78 C-2.632491 66.54204053 -3.2933305 55.32765617 -3.20581055 43.75683594 C-3.1872092 41.21018731 -3.18530415 38.66389796 -3.18554688 36.1171875 C-3.18064147 34.47916353 -3.17481748 32.841142 -3.16796875 31.203125 C-3.16685593 30.45105774 -3.1657431 29.69899048 -3.16459656 28.9241333 C-3.13046945 25.15005772 -2.8410925 21.67618571 -2 18 C-1.70330868 14.13477141 -1.49417463 10.26910305 -1.28125 6.3984375 C-1 3 -1 3 0 0 Z " fill="#ECECEC" transform="translate(125,173)"/>
<path d="M0 0 C9.7191875 -0.02326439 19.43836529 -0.04098651 29.15757465 -0.05181217 C33.67154747 -0.05701033 38.18550111 -0.0640517 42.69946289 -0.07543945 C47.06314976 -0.08637805 51.42681828 -0.09229989 55.79051781 -0.09487724 C57.44770788 -0.09671185 59.10489706 -0.10029399 60.76207924 -0.10573006 C69.55410333 -0.13339949 78.25548481 -0.05539702 87 1 C87 1.33 87 1.66 87 2 C86.31292969 2.03738281 85.62585938 2.07476562 84.91796875 2.11328125 C84.01691406 2.17902344 83.11585938 2.24476562 82.1875 2.3125 C81.29417969 2.37050781 80.40085937 2.42851563 79.48046875 2.48828125 C77.01224229 2.84363014 77.01224229 2.84363014 75.2265625 4.1328125 C73.42248943 6.8791403 73.40195771 9.30928562 73.1875 12.5625 C73.05408203 14.29693359 73.05408203 14.29693359 72.91796875 16.06640625 C72.66731412 19.12535785 72.66731412 19.12535785 75 21 C75.495 22.2684375 75.495 22.2684375 76 23.5625 C76.74870114 26.14841441 76.74870114 26.14841441 79 27 C82.97288453 27.44143161 84.53956856 27.32030013 87.875 25 C88.926875 24.01 88.926875 24.01 90 23 C90.99 26.465 90.99 26.465 92 30 C94.60194073 29.55395302 96.87185679 29.05675849 99.29296875 27.984375 C102.35937583 26.86931788 104.87017946 26.72896233 108.125 26.625 C117.5233566 26.01899737 125.02195444 22.78682733 133 18 C134.65172812 17.29713697 136.31301918 16.61344757 138 16 C132.80912445 21.59017367 127.65402335 24.35952653 120.3671875 26.2890625 C117.99836031 26.91299721 117.99836031 26.91299721 115.99609375 28.0859375 C113.54820353 29.20688919 111.8632774 29.13484233 109.1875 29 C104.67835572 28.89311658 101.24588681 29.52316981 97 31 C97 31.66 97 32.32 97 33 C94.125 32.6875 94.125 32.6875 91 32 C90.01 30.515 90.01 30.515 89 29 C88.32453125 29.09539062 87.6490625 29.19078125 86.953125 29.2890625 C86.06109375 29.39992188 85.1690625 29.51078125 84.25 29.625 C83.36828125 29.74101563 82.4865625 29.85703125 81.578125 29.9765625 C78.77140122 30.00207817 77.36615134 29.44843844 75 28 C74.773125 28.639375 74.54625 29.27875 74.3125 29.9375 C73 32 73 32 70.375 32.75 C69.59125 32.8325 68.8075 32.915 68 33 C68 32.34 68 31.68 68 31 C69.65 30.34 71.3 29.68 73 29 C72.87625 27.741875 72.7525 26.48375 72.625 25.1875 C72.52058594 24.12595703 72.52058594 24.12595703 72.4140625 23.04296875 C72.07334609 20.70011858 72.07334609 20.70011858 70 18 C69.8828125 15.2578125 69.8828125 15.2578125 70.125 12.125 C70.18945312 11.09632812 70.25390625 10.06765625 70.3203125 9.0078125 C71 6 71 6 75 1 C50.25 1 25.5 1 0 1 C0 0.67 0 0.34 0 0 Z " fill="#888888" transform="translate(47,45)"/>
<path d="M0 0 C1.16660156 0.23976563 2.33320313 0.47953125 3.53515625 0.7265625 C10.15945306 2.11074392 15.99004239 3.91093489 22 7 C22.64050293 7.32307129 23.28100586 7.64614258 23.94091797 7.97900391 C26.19607135 9.11996505 28.44284607 10.27602765 30.6875 11.4375 C31.41291992 11.80891113 32.13833984 12.18032227 32.88574219 12.56298828 C37.41929685 14.95263182 41.17543172 17.58499179 45 21 C41.06071297 21 39.35645414 19.55820301 36 17.5 C7.02882439 0.40200473 -26.62059331 -5.49915874 -59.4375 2.6875 C-72.1597661 6.357125 -84.16800668 10.93711537 -95.31835938 18.1550293 C-99.72970398 21 -99.72970398 21 -103 21 C-91.04979561 11.48034565 -77.87169893 4.66072589 -63 1 C-62.31583008 0.81953125 -61.63166016 0.6390625 -60.92675781 0.453125 C-41.00285369 -4.70877926 -19.98440587 -4.94506297 0 0 Z " fill="#7F7F7F" transform="translate(158,6)"/>
<path d="M0 0 C0.33 0 0.66 0 1 0 C1 6.6 1 13.2 1 20 C0.34 20 -0.32 20 -1 20 C-1 20.66 -1 21.32 -1 22 C-0.34 22.33 0.32 22.66 1 23 C0.67 23.66 0.34 24.32 0 25 C-2.64 25 -5.28 25 -8 25 C-8.495 23.515 -8.495 23.515 -9 22 C-10.65 21.67 -12.3 21.34 -14 21 C-14 20.01 -14 19.02 -14 18 C-14.763125 18.804375 -15.52625 19.60875 -16.3125 20.4375 C-20.43736007 24.37050612 -24.08569813 24.19252721 -29.5 24.1875 C-30.56444336 24.1884668 -30.56444336 24.1884668 -31.65039062 24.18945312 C-37.58283708 24.13050379 -43.2213934 23.37119479 -49 22 C-49 21.67 -49 21.34 -49 21 C-48.22922119 21.03665771 -47.45844238 21.07331543 -46.66430664 21.11108398 C-43.13078678 21.25768437 -39.59790795 21.34797287 -36.0625 21.4375 C-34.85013672 21.49615234 -33.63777344 21.55480469 -32.38867188 21.61523438 C-24.67781343 21.76151082 -20.41249032 20.92741417 -14.76733398 15.51586914 C-13 14 -13 14 -10 14 C-10 15.32 -10 16.64 -10 18 C-6.7 18.33 -3.4 18.66 0 19 C0 12.73 0 6.46 0 0 Z " fill="#A2A2A2" transform="translate(231,58)"/>
<path d="M0 0 C0 0.66 0 1.32 0 2 C2.59427088 3.29713544 4.29059758 2.95714965 7.1875 2.8125 C12.14252108 2.75279173 16.10711748 3.48401971 20.82421875 4.96484375 C29.40361873 7.44764046 37.74676266 7.66684509 46.625 7.75 C48.15237579 7.77826669 49.67972152 7.80820825 51.20703125 7.83984375 C56.80450393 7.94874013 62.40139431 8.01341626 68 8 C67.01 5.525 67.01 5.525 66 3 C68 4.8125 68 4.8125 70 7 C70 7.99 70 8.98 70 10 C64.88124019 10.10045875 59.7630801 10.17220033 54.64355469 10.21972656 C52.9097288 10.23958198 51.17596745 10.26667573 49.44238281 10.30175781 C38.9330803 10.50877768 29.68222066 9.94289886 19.59643555 6.84790039 C11.82086174 5.01472085 3.73070332 6.32574222 -4 8 C-4 7.01 -4 6.02 -4 5 C-4.99 5 -5.98 5 -7 5 C-5.22678182 1.07358831 -4.52021524 0 0 0 Z " fill="#939493" transform="translate(35,83)"/>
<path d="M0 0 C2 2 2 2 2.265625 4.86328125 C2.26046875 6.00152344 2.2553125 7.13976562 2.25 8.3125 C2.25515625 9.44300781 2.2603125 10.57351562 2.265625 11.73828125 C2 15 2 15 1.0234375 17.31640625 C-0.5146915 21.34959182 -0.47790818 25.33982895 -0.625 29.625 C-0.65859619 30.54273193 -0.69219238 31.46046387 -0.72680664 32.40600586 C-0.792146 34.31624062 -0.85238813 36.22665606 -0.90771484 38.13720703 C-0.997272 40.91537419 -1.13105389 43.68875025 -1.26953125 46.46484375 C-1.32790226 48.16398236 -1.38399187 49.8632013 -1.4375 51.5625 C-1.48406738 52.35285645 -1.53063477 53.14321289 -1.57861328 53.95751953 C-1.69325709 56.46691393 -1.69325709 56.46691393 -1 60 C3.10668199 63.65742365 6.57033065 64.56562645 12 65 C9 67 9 67 6.75 66.9375 C2.57271083 65.51342415 -1.97214055 63.0557189 -4 59 C-4.10297616 56.59217514 -4.1407089 54.22037082 -4.125 51.8125 C-4.12234131 51.08087646 -4.11968262 50.34925293 -4.11694336 49.59545898 C-4.06235923 42.9133946 -3.83329975 36.23891618 -3.5625 29.5625 C-3.50376709 28.04329956 -3.50376709 28.04329956 -3.44384766 26.4934082 C-3.40179199 25.54812256 -3.35973633 24.60283691 -3.31640625 23.62890625 C-3.27974854 22.78400635 -3.24309082 21.93910645 -3.20532227 21.06860352 C-3 19 -3 19 -2 17 C-1.79413422 14.87843877 -1.63385378 12.75231896 -1.5 10.625 C-1.26856896 6.96343029 -1.04234665 3.52660615 0 0 Z " fill="#9D9D9D" transform="translate(142,180)"/>
<path d="M0 0 C25.08 0 50.16 0 76 0 C76 0.66 76 1.32 76 2 C76.99 2.495 76.99 2.495 78 3 C77.34 3.99 76.68 4.98 76 6 C74.68 6 73.36 6 72 6 C71.13761719 7.41152344 71.13761719 7.41152344 70.2578125 8.8515625 C67.25573936 13.03784443 64.74854429 13.42470246 59.875 14.375 C59.14667969 14.53871094 58.41835937 14.70242187 57.66796875 14.87109375 C52.53571429 16 52.53571429 16 50 16 C50 15.34 50 14.68 50 14 C51.49923475 13.53916965 52.99943974 13.08149574 54.5 12.625 C55.41007812 12.34527344 56.32015625 12.06554688 57.2578125 11.77734375 C59.63215183 11.10427605 61.95159308 10.63102919 64.375 10.1875 C68.84014723 8.72477936 69.77457701 7.02288003 72 3 C72.66 2.67 73.32 2.34 74 2 C49.58 2 25.16 2 0 2 C0 1.34 0 0.68 0 0 Z " fill="#949494" transform="translate(135,46)"/>
<path d="M0 0 C0.33 0 0.66 0 1 0 C0.97381592 0.71728271 0.94763184 1.43456543 0.9206543 2.17358398 C-0.04168496 32.83444372 5.86363578 58.01891905 20 85 C19.01 85.495 19.01 85.495 18 86 C11.91093876 75.90462832 7.23021677 66.39515583 4 55 C3.81066895 54.35611328 3.62133789 53.71222656 3.42626953 53.04882812 C-0.00743893 41.35393583 -1.17291656 30.47531953 -1.125 18.3125 C-1.12886719 17.31927734 -1.13273438 16.32605469 -1.13671875 15.30273438 C-1.12979581 10.09322044 -0.90446458 5.13247757 0 0 Z " fill="#868686" transform="translate(5,109)"/>
<path d="M0 0 C0.66 0.66 1.32 1.32 2 2 C1.09500643 4.5671651 0.17662391 7.12814695 -0.75 9.6875 C-1.00265625 10.40873047 -1.2553125 11.12996094 -1.515625 11.87304688 C-3.11307925 16.24607789 -4.86807948 19.47179566 -8 23 C-8.61875 23.928125 -9.2375 24.85625 -9.875 25.8125 C-12 29 -12 29 -13.4453125 30.7734375 C-18.69460656 37.23613622 -21.09881858 44.07335313 -22.9921875 52.12109375 C-23.16089355 52.83458984 -23.32959961 53.54808594 -23.50341797 54.28320312 C-23.82796084 55.69115116 -24.13755809 57.10265034 -24.43017578 58.51757812 C-25.3941514 62.80520624 -26.57848124 65.21288784 -30 68 C-27.1945637 53.38800942 -23.84850648 39.39945239 -14 28 C-9.29024966 21.2991357 -5.80908936 14.67297555 -3 7 C-2.02503824 4.65504888 -1.01262052 2.32902719 0 0 Z " fill="#8A8A8A" transform="translate(96,156)"/>
<path d="M0 0 C5.54267744 9.92357097 5.37707915 21.0829147 4 32 C2.68 32 1.36 32 0 32 C-0.86191706 25.31672251 -1.153398 18.79755888 -1.125 12.0625 C-1.12886719 11.11826172 -1.13273437 10.17402344 -1.13671875 9.20117188 C-1.13542969 8.30076172 -1.13414063 7.40035156 -1.1328125 6.47265625 C-1.13168457 5.66062744 -1.13055664 4.84859863 -1.12939453 4.01196289 C-1 2 -1 2 0 0 Z " fill="#F2F2F2" transform="translate(124,219)"/>
<path d="M0 0 C2.46808088 2.22879326 3.14285194 3.36023532 4.4375 6.625 C5.55053784 10.01984244 5.55053784 10.01984244 7.59375 10.67578125 C11.0738669 11.1446931 14.55866435 11.37012018 18.0625 11.5625 C18.78244141 11.60568359 19.50238281 11.64886719 20.24414062 11.69335938 C23.16739172 11.86435735 26.07117303 12 29 12 C18.94806471 19.62001546 8.03097985 24.98275368 -3.6875 29.5 C-4.37086426 29.76756104 -5.05422852 30.03512207 -5.75830078 30.31079102 C-10.63595019 32.12134994 -10.63595019 32.12134994 -14 31 C-9.39849201 28.48695699 -4.3827886 27.11253408 0.58984375 25.51171875 C4.30489002 23.86484257 6.21237787 21.90063384 9 19 C11.09765625 18.14453125 11.09765625 18.14453125 13.0625 17.8125 C15.99111787 17.22125073 18.44493425 16.63524208 21 15 C21.33 14.34 21.66 13.68 22 13 C20.96359375 13.04640625 19.9271875 13.0928125 18.859375 13.140625 C17.48961221 13.17815275 16.11981818 13.21455184 14.75 13.25 C13.72712891 13.30027344 13.72712891 13.30027344 12.68359375 13.3515625 C9.31809862 13.41691192 7.38454986 13.27829266 4.625 11.28125 C2.95503793 8.93688017 2.05957751 7.00256352 1.25 4.25 C1.00765625 3.45078125 0.7653125 2.6515625 0.515625 1.828125 C0.34546875 1.22484375 0.1753125 0.6215625 0 0 Z " fill="#838383" transform="translate(174,216)"/>
<path d="M0 0 C3.99953251 3.99953251 6.00411278 6.01028195 8 11 C7.67 11.66 7.34 12.32 7 13 C5.35 10.36 3.7 7.72 2 5 C1.67 18.2 1.34 31.4 1 45 C0.67 45 0.34 45 0 45 C0 39.06 0 33.12 0 27 C-1.32 28.32 -2.64 29.64 -4 31 C-4 31.66 -4 32.32 -4 33 C-9.75 32.25 -9.75 32.25 -12 30 C-11.34 30 -10.68 30 -10 30 C-9.67 28.35 -9.34 26.7 -9 25 C-6.36 25 -3.72 25 -1 25 C-1.33 23.35 -1.66 21.7 -2 20 C-1.34 20 -0.68 20 0 20 C0 13.4 0 6.8 0 0 Z " fill="#7F8080" transform="translate(232,58)"/>
<path d="M0 0 C8.27356178 1.68665107 16.22865068 3.60083808 23.73193359 7.56835938 C25.10012369 8.26165905 26.46864889 8.95429758 27.83740234 9.64648438 C29.36568953 10.4311078 30.8930231 11.21759124 32.41943359 12.00585938 C33.14517578 12.37735107 33.87091797 12.74884277 34.61865234 13.1315918 C39.15162611 15.52150639 42.90762833 18.15358602 46.73193359 21.56835938 C42.79264657 21.56835938 41.08838773 20.12656239 37.73193359 18.06835938 C19.23277736 7.15066345 -0.02584357 1.71517977 -21.26806641 -0.43164062 C-15.51702805 -4.2656662 -6.60878151 -1.25773151 0 0 Z " fill="#909090" transform="translate(156.26806640625,5.431640625)"/>
<path d="M0 0 C0.66 0 1.32 0 2 0 C2.15855469 0.67804688 2.31710938 1.35609375 2.48046875 2.0546875 C3.95922272 7.95336354 5.88771927 12.97838601 8.75 18.328125 C10.17323862 21.37029756 11.04287844 24.38945203 11.9375 27.625 C13.37526904 32.52026126 14.98181619 35.94186622 18.21875 39.84765625 C24.2343556 47.11651301 29.86381083 54.69231862 32 64 C31.67 64.66 31.34 65.32 31 66 C29 63 29 63 28.30078125 59.88671875 C26.90872135 54.71834057 23.44709244 50.94892239 20.1875 46.8125 C12.92276123 37.27758771 8.92391657 28.66577348 5.69140625 17.12109375 C4.8349547 14.49367459 3.44657714 12.34207727 2 10 C2 8.68 2 7.36 2 6 C1.34 6 0.68 6 0 6 C0 4.02 0 2.04 0 0 Z " fill="#888888" transform="translate(143,176)"/>
<path d="M0 0 C0.33 0 0.66 0 1 0 C1 6.6 1 13.2 1 20 C4.96 19.67 8.92 19.34 13 19 C12.34 18.34 11.68 17.68 11 17 C11 16.01 11 15.02 11 14 C12.32 14.33 13.64 14.66 15 15 C15 17 15 19 15 21 C13.35 21.33 11.7 21.66 10 22 C10.33 23.98 10.66 25.96 11 28 C9.02 28 7.04 28 5 28 C6.32 27.67 7.64 27.34 9 27 C9 26.34 9 25.68 9 25 C6.69 25.99 4.38 26.98 2 28 C0.01039227 24.6816923 -0.2361745 22.20040301 -0.1953125 18.359375 C-0.18886719 17.28945312 -0.18242187 16.21953125 -0.17578125 15.1171875 C-0.15902344 14.00601563 -0.14226563 12.89484375 -0.125 11.75 C-0.11597656 10.62335938 -0.10695313 9.49671875 -0.09765625 8.3359375 C-0.07410658 5.55707635 -0.0412168 2.7786461 0 0 Z " fill="#A4A4A5" transform="translate(26,58)"/>
<path d="M0 0 C2.10353495 -0.0810206 4.20795952 -0.13919907 6.3125 -0.1875 C7.48425781 -0.22230469 8.65601563 -0.25710937 9.86328125 -0.29296875 C13 0 13 0 14.91796875 1.32421875 C16 3 16 3 16 6 C9.4 6.66 2.8 7.32 -4 8 C-2.68 8.99 -1.36 9.98 0 11 C0.66 11.66 1.32 12.32 2 13 C0 14 0 14 -2.3828125 13.22265625 C-3.28773437 12.83980469 -4.19265625 12.45695312 -5.125 12.0625 C-6.03507812 11.68222656 -6.94515625 11.30195312 -7.8828125 10.91015625 C-8.58148438 10.60980469 -9.28015625 10.30945313 -10 10 C-9.34 9.67 -8.68 9.34 -8 9 C-8 8.34 -8 7.68 -8 7 C-9.32 6.67 -10.64 6.34 -12 6 C-11.12263184 5.91697632 -11.12263184 5.91697632 -10.22753906 5.83227539 C-7.56804892 5.57882735 -4.90903168 5.32071175 -2.25 5.0625 C-1.32960938 4.97548828 -0.40921875 4.88847656 0.5390625 4.79882812 C1.87324219 4.66831055 1.87324219 4.66831055 3.234375 4.53515625 C4.05131836 4.456604 4.86826172 4.37805176 5.70996094 4.29711914 C7.87120901 4.01670988 9.90017313 3.57555495 12 3 C9.56612247 1.78306124 7.58161154 1.68040104 4.875 1.4375 C3.96492188 1.35371094 3.05484375 1.26992187 2.1171875 1.18359375 C1.41851562 1.12300781 0.71984375 1.06242187 0 1 C0 0.67 0 0.34 0 0 Z " fill="#A1A1A1" transform="translate(100,73)"/>
<path d="M0 0 C3.78226731 1.69549914 3.78226731 1.69549914 5.11254883 3.5559082 C8.18390271 5.90580578 11.67832961 5.36530037 15.38671875 5.29296875 C16.20372757 5.28872391 17.02073639 5.28447906 17.86250305 5.28010559 C20.47117107 5.26331691 23.07906562 5.22566519 25.6875 5.1875 C27.45636905 5.17245337 29.22525021 5.15876492 30.99414062 5.14648438 C35.32972496 5.11341286 39.66473136 5.0616299 44 5 C44.66 6.32 45.32 7.64 46 9 C44.39592672 9.02708567 42.7917215 9.04643483 41.1875 9.0625 C39.84751953 9.07990234 39.84751953 9.07990234 38.48046875 9.09765625 C36 9 36 9 33 8 C31.06509011 7.97502421 29.12916016 8.00932609 27.1953125 8.078125 C25.48408203 8.11679688 25.48408203 8.11679688 23.73828125 8.15625 C21.33677711 8.2185593 18.93562751 8.29659131 16.53515625 8.390625 C7.75353554 8.54903079 7.75353554 8.54903079 3.8046875 5.671875 C2.53042806 3.78530908 1.26282566 1.89423849 0 0 Z " fill="#A9A9A9" transform="translate(41,74)"/>
<path d="M0 0 C0.33 0 0.66 0 1 0 C3.16236857 11.35243498 2.09784896 22.72406183 0 34 C-0.495 32.515 -0.495 32.515 -1 31 C-1.99 31.33 -2.98 31.66 -4 32 C-5.13136586 30.44210317 -6.25482321 28.87846143 -7.375 27.3125 C-8.00148437 26.44238281 -8.62796875 25.57226562 -9.2734375 24.67578125 C-10.89415843 22.16403048 -11.99858088 19.80700813 -13 17 C-12.34 16.67 -11.68 16.34 -11 16 C-10.63648438 16.77923828 -10.63648438 16.77923828 -10.265625 17.57421875 C-8.22863922 21.81271608 -6.12171172 25.43232946 -3 29 C-0.51655646 23.1649172 -0.55938873 17.36348542 -0.375 11.125 C-0.33632812 10.05507812 -0.29765625 8.98515625 -0.2578125 7.8828125 C-0.16397548 5.25537592 -0.07828443 2.62793829 0 0 Z " fill="#989898" transform="translate(146,145)"/>
<path d="M0 0 C2.26663559 3.39995338 2.39499392 5.23093048 2.8125 9.25 C3.51617598 14.77643085 4.73825162 19.64341144 6.625 24.875 C9.76666578 33.74803741 9.72863907 39.29984217 6 48 C5.34 47.67 4.68 47.34 4 47 C4.495 46.071875 4.495 46.071875 5 45.125 C7.60401328 36.9874585 5.57375718 29.43256462 3 21.5625 C0.74959958 14.27282384 -0.97403326 7.70207785 0 0 Z " fill="#989898" transform="translate(106,202)"/>
<path d="M0 0 C0.33 0 0.66 0 1 0 C1.19335938 0.61488281 1.38671875 1.22976562 1.5859375 1.86328125 C1.84632813 2.67152344 2.10671875 3.47976562 2.375 4.3125 C2.63023437 5.11300781 2.88546875 5.91351563 3.1484375 6.73828125 C3.98831811 9.22724528 3.98831811 9.22724528 6 12 C6.35049568 13.92772624 6.6352869 15.86788864 6.875 17.8125 C7.66612674 22.95175746 8.96219358 25.74707102 12 30 C17 41.58119658 17 41.58119658 17 45 C16.34 45 15.68 45 15 45 C14.62488281 44.02160156 14.24976563 43.04320312 13.86328125 42.03515625 C10.5253187 33.34476097 10.5253187 33.34476097 6.1875 25.125 C3.977193 21.40385023 3.54736354 18.40924752 3.31640625 14.1328125 C2.95780359 11.71556494 2.18296832 10.2984114 0.875 8.25 C-1 5 -1 5 -0.75 2.0625 C-0.5025 1.381875 -0.255 0.70125 0 0 Z " fill="#969696" transform="translate(158,171)"/>
<path d="M0 0 C0.66 0.66 1.32 1.32 2 2 C1.61328125 2.83660156 1.2265625 3.67320313 0.828125 4.53515625 C-4.58660732 16.63788715 -7.92622359 28.87517825 -10 42 C-12.78164051 37.82753923 -11.79674635 35.58007799 -10.8984375 30.796875 C-9.81539849 26.21985796 -8.52040476 21.74047548 -7.125 17.25 C-6.88072266 16.45851563 -6.63644531 15.66703125 -6.38476562 14.8515625 C-4.69909816 9.61504745 -2.56650231 4.86635504 0 0 Z " fill="#9B9B9B" transform="translate(17,70)"/>
<path d="M0 0 C0 3.69502092 -0.81277183 4.21846157 -3.1875 6.9375 C-6.81593594 11.41452176 -8.80641925 15.92145245 -10.8828125 21.26171875 C-12.97912151 26.39987476 -15.9226603 30.21389885 -20 34 C-20 31 -20 31 -18.19921875 28.79296875 C-15.63361713 25.53470026 -14.29814343 22.13208067 -12.8125 18.3125 C-9.74418368 10.80892341 -5.93940085 5.60270012 0 0 Z " fill="#979797" transform="translate(103,179)"/>
<path d="M0 0 C-3.19443022 2.12962015 -6.15162783 3.23019132 -9.75 4.5625 C-16.3452911 7.07754331 -22.22971647 10.29280411 -28.16308594 14.10375977 C-32.71707123 17 -32.71707123 17 -36 17 C-10.00699301 -3.70629371 -10.00699301 -3.70629371 0 0 Z " fill="#898989" transform="translate(91,10)"/>
<path d="M0 0 C1.063396 0.03963867 2.12679199 0.07927734 3.22241211 0.12011719 C4.39352539 0.16265625 5.56463867 0.20519531 6.77124023 0.24902344 C8.61685547 0.33216797 8.61685547 0.33216797 10.49975586 0.41699219 C11.7030957 0.45695312 12.90643555 0.49691406 14.14624023 0.53808594 C20.82156765 0.80786979 26.97318218 1.46921611 33.43725586 3.16699219 C33.43725586 3.49699219 33.43725586 3.82699219 33.43725586 4.16699219 C28.60390866 4.25032576 24.20033023 4.11960706 19.43725586 3.16699219 C19.10725586 3.82699219 18.77725586 4.48699219 18.43725586 5.16699219 C17.44725586 5.03421875 16.45725586 4.90144531 15.43725586 4.76464844 C8.7737625 3.87258517 2.11044299 2.98411714 -4.56274414 2.16699219 C-2.56274414 0.16699219 -2.56274414 0.16699219 0 0 Z " fill="#9E9F9F" transform="translate(146.562744140625,76.8330078125)"/>
<path d="M0 0 C3.32620361 1.28111729 6.47059654 2.71867444 9.625 4.375 C14.93637418 7.06230241 20.38590125 9.04799538 26 11 C27.56437058 11.57829813 29.12710209 12.16106675 30.6875 12.75 C31.780625 13.1625 32.87375 13.575 34 14 C34 14.66 34 15.32 34 16 C29.38 16 24.76 16 20 16 C20 15.67 20 15.34 20 15 C23.465 14.505 23.465 14.505 27 14 C23.49030922 12.06043404 20.17325807 10.74135893 16.3125 9.75 C10.20006421 8.01953873 5.07864282 4.76553365 0 1 C0 0.67 0 0.34 0 0 Z " fill="#878787" transform="translate(58,66)"/>
<path d="M0 0 C0.66 0.66 1.32 1.32 2 2 C1.89348034 8.83057338 -0.72930476 15.6031684 -2.9375 22 C-3.31648437 23.11290405 -3.31648437 23.11290405 -3.703125 24.24829102 C-5.00270599 27.87670449 -6.1511988 30.41621508 -9 33 C-9.33 32.34 -9.66 31.68 -10 31 C-8.98282271 28.18481228 -7.90277212 25.44661238 -6.75 22.6875 C-3.71294958 15.19746178 -1.47764345 7.96520182 0 0 Z " fill="#939393" transform="translate(250,149)"/>
<path d="M0 0 C0.66 0.66 1.32 1.32 2 2 C1.38125 3.0725 0.7625 4.145 0.125 5.25 C-5.20467607 16.07884714 -4.53009047 29.17806552 -5 41 C-5.33 41 -5.66 41 -6 41 C-7.22875922 26.15125906 -7.59625845 13.35893728 0 0 Z " fill="#A4A4A4" transform="translate(152,93)"/>
<path d="M0 0 C2 2 2 2 2.265625 4.86328125 C2.26046875 6.00152344 2.2553125 7.13976562 2.25 8.3125 C2.25515625 9.44300781 2.2603125 10.57351562 2.265625 11.73828125 C2.0038985 14.95212869 1.27384883 17.0730649 0 20 C-0.43888925 22.20254027 -0.43888925 22.20254027 -0.625 24.3125 C-0.74875 25.529375 -0.8725 26.74625 -1 28 C-1.33 28 -1.66 28 -2 28 C-2.19491452 26.54263913 -2.38069358 25.08405407 -2.5625 23.625 C-2.66691406 22.81289062 -2.77132812 22.00078125 -2.87890625 21.1640625 C-3 19 -3 19 -2 17 C-1.79413422 14.87843877 -1.63385378 12.75231896 -1.5 10.625 C-1.26856896 6.96343029 -1.04234665 3.52660615 0 0 Z " fill="#B1B1B1" transform="translate(142,180)"/>
<path d="M0 0 C0.66 0 1.32 0 2 0 C2 0.66 2 1.32 2 2 C5.63 2 9.26 2 13 2 C13 2.66 13 3.32 13 4 C13.66 4.33 14.32 4.66 15 5 C14.67 5.66 14.34 6.32 14 7 C11.36 7 8.72 7 6 7 C5.67 6.01 5.34 5.02 5 4 C3.35 3.67 1.7 3.34 0 3 C0 2.01 0 1.02 0 0 Z " fill="#989999" transform="translate(217,76)"/>
<path d="M0 0 C4.17863851 1.51344766 6.16675913 4.51521239 8.5625 8.0625 C8.95872559 8.64233643 9.35495117 9.22217285 9.76318359 9.81958008 C12.82835952 14.44547658 14.76255718 18.60828486 16 24 C15.67 24.66 15.34 25.32 15 26 C13 23 13 23 12.2265625 19.8046875 C10.72006447 15.13166496 8.36221518 11.96137279 5.375 8.125 C0 1.08375 0 1.08375 0 0 Z " fill="#909090" transform="translate(159,216)"/>
<path d="M0 0 C6.03518337 4.98558626 11.50757503 10.42810265 17 16 C18.66550644 17.66782609 20.33184987 19.33481811 22 21 C13.49627145 17.21613952 5.33181573 9.58828382 0 2 C0 1.34 0 0.68 0 0 Z " fill="#818181" transform="translate(33,206)"/>
<path d="M0 0 C7.26 0 14.52 0 22 0 C22 0.33 22 0.66 22 1 C17.90259237 1.95397659 13.9478277 2.19361238 9.75 2.375 C3.61466766 2.74155756 -1.31739461 3.70701888 -7 6 C-7.33 5.34 -7.66 4.68 -8 4 C-5.09399739 2.74335022 -3.20395416 2 0 2 C0 1.34 0 0.68 0 0 Z " fill="#929292" transform="translate(166,80)"/>
<path d="M0 0 C0.66 0 1.32 0 2 0 C4.125 4.625 4.125 4.625 3 8 C3.99 8.66 4.98 9.32 6 10 C3.79124879 12.19602066 1.59005725 14.26080867 -1 16 C-3.9375 15.875 -3.9375 15.875 -6 15 C-3.35122304 13.58101234 -0.91985181 12.68088981 2 12 C1.855625 11.38511719 1.71125 10.77023438 1.5625 10.13671875 C1.376875 9.32847656 1.19125 8.52023438 1 7.6875 C0.814375 6.88699219 0.62875 6.08648437 0.4375 5.26171875 C0 3 0 3 0 0 Z " fill="#A0A0A0" transform="translate(214,46)"/>
<path d="M0 0 C2 1.8125 2 1.8125 4 4 C4 4.99 4 5.98 4 7 C-14.82004556 7.18451025 -14.82004556 7.18451025 -24 6 C-24 5.67 -24 5.34 -24 5 C-15.42 5 -6.84 5 2 5 C1.34 3.35 0.68 1.7 0 0 Z " fill="#6B6C6C" transform="translate(101,86)"/>
<path d="M0 0 C0.66 0.33 1.32 0.66 2 1 C1.195625 1.61875 0.39125 2.2375 -0.4375 2.875 C-3.03874519 4.74164041 -3.03874519 4.74164041 -4 7 C-3.278125 7.28875 -2.55625 7.5775 -1.8125 7.875 C0.79166667 8.91666667 3.39583333 9.95833333 6 11 C6 11.66 6 12.32 6 13 C1.7170548 12.4520917 -0.85135641 10.97567196 -4.3125 8.4375 C-5.19550781 7.79683594 -6.07851563 7.15617188 -6.98828125 6.49609375 C-7.98408203 5.75552734 -7.98408203 5.75552734 -9 5 C-8.09507813 4.81630859 -8.09507813 4.81630859 -7.171875 4.62890625 C-4.19083621 3.76569178 -2.32699226 2.00379889 0 0 Z " fill="#787878" transform="translate(64,223)"/>
<path d="M0 0 C0 0.66 0 1.32 0 2 C1.45833358 3.62514468 1.45833358 3.62514468 3 5 C-0.625 8 -0.625 8 -4 8 C-4 7.01 -4 6.02 -4 5 C-4.99 5 -5.98 5 -7 5 C-5.22678182 1.07358831 -4.52021524 0 0 0 Z " fill="#7A7A7B" transform="translate(35,83)"/>
<path d="M0 0 C2.73251686 3.27098341 4.21683758 6.59882422 5.75 10.5625 C6.42289063 12.26599609 6.42289063 12.26599609 7.109375 14.00390625 C8 17 8 17 7 20 C4.94001629 16.91002444 3.71705907 14.01967556 2.375 10.5625 C1.70597656 8.86287109 1.70597656 8.86287109 1.0234375 7.12890625 C0 4 0 4 0 0 Z " fill="#A4A4A4" transform="translate(240,70)"/>
<path d="M0 0 C0.66 0.33 1.32 0.66 2 1 C-0.06057175 2.91877545 -2.12337063 4.83505798 -4.1875 6.75 C-4.76564453 7.28882813 -5.34378906 7.82765625 -5.93945312 8.3828125 C-9.19362878 11.39798091 -12.49155668 14.27781799 -16 17 C-15.5611661 12.60145557 -12.88236848 10.74306001 -9.6875 7.9375 C-8.23923828 6.65166016 -8.23923828 6.65166016 -6.76171875 5.33984375 C-4.55580864 3.47090435 -2.33990789 1.69518267 0 0 Z " fill="#969696" transform="translate(53,28)"/>
<path d="M0 0 C0.33 0.66 0.66 1.32 1 2 C2.65 2 4.3 2 6 2 C5.1028125 2.433125 5.1028125 2.433125 4.1875 2.875 C1.80672208 4.04742026 1.80672208 4.04742026 -1 6 C-1.33 5.67 -1.66 5.34 -2 5 C-2.99 5.99 -3.98 6.98 -5 8 C-4.67 6.68 -4.34 5.36 -4 4 C-6.31 3.34 -8.62 2.68 -11 2 C-11 1.67 -11 1.34 -11 1 C-5.555 0.505 -5.555 0.505 0 0 Z " fill="#8E8E8E" transform="translate(36,44)"/>
<path d="M0 0 C0.33 0 0.66 0 1 0 C1 6.6 1 13.2 1 20 C-3.29 20 -7.58 20 -12 20 C-12 19.34 -12 18.68 -12 18 C-12.66 17.67 -13.32 17.34 -14 17 C-13.01 16.34 -12.02 15.68 -11 15 C-10.67 15.99 -10.34 16.98 -10 18 C-6.7 18.33 -3.4 18.66 0 19 C0 12.73 0 6.46 0 0 Z " fill="#B7B8B7" transform="translate(231,58)"/>
<path d="M0 0 C4.33754446 3.82029044 6.33213639 7.30028395 8.3125 12.6875 C8.57611328 13.36361328 8.83972656 14.03972656 9.11132812 14.73632812 C11 19.66649756 11 19.66649756 11 22 C10.34 22 9.68 22 9 22 C8.60167969 20.97519531 8.20335937 19.95039063 7.79296875 18.89453125 C7.25804583 17.53376242 6.72287651 16.17309043 6.1875 14.8125 C5.92646484 14.13896484 5.66542969 13.46542969 5.39648438 12.77148438 C3.88167963 8.93771927 2.14920142 5.5303699 0 2 C0 1.34 0 0.68 0 0 Z " fill="#909090" transform="translate(164,194)"/>
<path d="M0 0 C1.65 0 3.3 0 5 0 C5.04241723 2.33294775 5.04092937 4.66702567 5 7 C4 8 4 8 1.4375 8.0625 C0.633125 8.041875 -0.17125 8.02125 -1 8 C-0.814375 7.38125 -0.62875 6.7625 -0.4375 6.125 C0.23686176 3.95839822 0.23686176 3.95839822 -1 2 C-0.67 1.34 -0.34 0.68 0 0 Z " fill="#949494" transform="translate(217,47)"/>
<path d="M0 0 C-2.8822106 2.8822106 -6.24869013 2.9689061 -10.125 3.625 C-11.25615234 3.82609375 -11.25615234 3.82609375 -12.41015625 4.03125 C-14.27219918 4.36123229 -16.13595175 4.68154073 -18 5 C-18 4.34 -18 3.68 -18 3 C-16.43840941 2.51787786 -14.87568072 2.03944127 -13.3125 1.5625 C-12.00732422 1.16224609 -12.00732422 1.16224609 -10.67578125 0.75390625 C-3.66455696 -1.22151899 -3.66455696 -1.22151899 0 0 Z " fill="#A5A5A5" transform="translate(203,57)"/>
<path d="M0 0 C0.86625 0.556875 0.86625 0.556875 1.75 1.125 C0.76 3.435 -0.23 5.745 -1.25 8.125 C-3.77588702 5.76207344 -5.13820837 4.46037489 -6.25 1.125 C-2.80384615 -1.09038462 -2.80384615 -1.09038462 0 0 Z " fill="#A9A9A9" transform="translate(43.25,48.875)"/>
<path d="M0 0 C4.4729103 1.98796013 8.16161102 4.24337546 10.3125 8.75 C10.6528125 9.86375 10.6528125 9.86375 11 11 C8 10 8 10 6.5625 7.4375 C6.046875 6.633125 5.53125 5.82875 5 5 C3.68 5 2.36 5 1 5 C-0.75 3.5 -0.75 3.5 -2 2 C-1.34 2 -0.68 2 0 2 C0 1.34 0 0.68 0 0 Z " fill="#858585" transform="translate(45,46)"/>
<path d="M0 0 C0.66 0.66 1.32 1.32 2 2 C0.2519799 3.6063702 -1.49831644 5.21013297 -3.25 6.8125 C-3.74113281 7.26431641 -4.23226562 7.71613281 -4.73828125 8.18164062 C-7.39507648 10.60818027 -10.07465076 12.90349971 -13 15 C-13.66 14.67 -14.32 14.34 -15 14 C-14.08476562 13.15695313 -13.16953125 12.31390625 -12.2265625 11.4453125 C-11.02602139 10.33856366 -9.82550167 9.23179162 -8.625 8.125 C-8.02171875 7.56941406 -7.4184375 7.01382813 -6.796875 6.44140625 C-6.21679688 5.90644531 -5.63671875 5.37148437 -5.0390625 4.8203125 C-4.50490723 4.32805176 -3.97075195 3.83579102 -3.42041016 3.32861328 C-2.25855182 2.24184238 -1.12494128 1.12494128 0 0 Z " fill="#848484" transform="translate(218,212)"/>
<path d="M0 0 C0.66 0.33 1.32 0.66 2 1 C1.01 2.32 0.02 3.64 -1 5 C2.16245541 6.0541518 4.86948218 6.31275672 8.1875 6.5625 C9.81751953 6.68818359 9.81751953 6.68818359 11.48046875 6.81640625 C12.72763672 6.90728516 12.72763672 6.90728516 14 7 C14 7.33 14 7.66 14 8 C8.06 8.33 2.12 8.66 -4 9 C-3.10429689 4.52148447 -2.74999027 3.22824944 0 0 Z " fill="#747575" transform="translate(157,85)"/>
<path d="M0 0 C2.31 0 4.62 0 7 0 C5.38731308 2.71224618 3.75098126 5.37352812 2 8 C1.34 8 0.68 8 0 8 C0 5.36 0 2.72 0 0 Z " fill="#E5E5E5" transform="translate(26,47)"/>
<path d="M0 0 C0.66 0.66 1.32 1.32 2 2 C0.35 6.62 -1.3 11.24 -3 16 C-3.66 15.67 -4.32 15.34 -5 15 C-4.54705135 13.24859857 -4.08741252 11.49892656 -3.625 9.75 C-3.36976562 8.77546875 -3.11453125 7.8009375 -2.8515625 6.796875 C-2.10401491 4.34162697 -1.22876183 2.24382595 0 0 Z " fill="#A2A2A2" transform="translate(96,156)"/>
<path d="M0 0 C2.875 -0.125 2.875 -0.125 6 0 C6.66 0.66 7.32 1.32 8 2 C8.66 2.495 9.32 2.99 10 3.5 C12 5 12 5 14 7 C12 8 12 8 9.6171875 7.22265625 C8.25980469 6.64837891 8.25980469 6.64837891 6.875 6.0625 C5.96492188 5.68222656 5.05484375 5.30195312 4.1171875 4.91015625 C3.06917969 4.45962891 3.06917969 4.45962891 2 4 C2.66 3.67 3.32 3.34 4 3 C4 2.34 4 1.68 4 1 C2.68 0.67 1.36 0.34 0 0 Z " fill="#A9A9A9" transform="translate(88,79)"/>
<path d="M0 0 C2.16070694 2.16070694 3.37401436 4.46072585 4.84765625 7.11328125 C6.6164895 10.00937094 8.76332478 12.45267545 11 15 C10.01 15.33 9.02 15.66 8 16 C6.86863414 14.44210317 5.74517679 12.87846143 4.625 11.3125 C3.99851563 10.44238281 3.37203125 9.57226562 2.7265625 8.67578125 C1.10584157 6.16403048 0.00141912 3.80700813 -1 1 C-0.67 0.67 -0.34 0.34 0 0 Z " fill="#979797" transform="translate(134,161)"/>
<path d="M0 0 C1.32 0.33 2.64 0.66 4 1 C4 3 4 5 4 7 C-0.62 7.33 -5.24 7.66 -10 8 C-10 7.34 -10 6.68 -10 6 C-4.06 5.505 -4.06 5.505 2 5 C1.34 4.34 0.68 3.68 0 3 C0 2.01 0 1.02 0 0 Z " fill="#898989" transform="translate(37,72)"/>
<path d="M0 0 C0.66 0.66 1.32 1.32 2 2 C1.77645886 6.45362727 0.71939804 10.1324906 -2.125 13.5625 C-2.74375 14.036875 -3.3625 14.51125 -4 15 C-3.34728444 11.48294042 -2.48606976 8.10674923 -1.4375 4.6875 C-1.16808594 3.80449219 -0.89867188 2.92148438 -0.62109375 2.01171875 C-0.41613281 1.34785156 -0.21117188 0.68398437 0 0 Z " fill="#A2A2A2" transform="translate(70,209)"/>
<path d="M0 0 C-2.6860286 1.79068573 -4.6626589 2.66055791 -7.6875 3.625 C-8.49574219 3.88539062 -9.30398437 4.14578125 -10.13671875 4.4140625 C-10.75160156 4.60742188 -11.36648437 4.80078125 -12 5 C-12.66 4.34 -13.32 3.68 -14 3 C-12.42274653 2.29866401 -10.83788667 1.614417 -9.25 0.9375 C-7.92742187 0.36322266 -7.92742187 0.36322266 -6.578125 -0.22265625 C-3.84743691 -1.04600008 -2.63098653 -0.9773992 0 0 Z " fill="#A7A7A7" transform="translate(91,10)"/>
<path d="M0 0 C0 0.33 0 0.66 0 1 C-4.8333472 1.08333357 -9.23692563 0.95261487 -14 0 C-14.33 0.66 -14.66 1.32 -15 2 C-16.32 1.34 -17.64 0.68 -19 0 C-12.06918811 -1.88101367 -6.88131426 -2.16079916 0 0 Z " fill="#BABABA" transform="translate(180,80)"/>
<path d="M0 0 C2 4 2 4 1.3203125 6.140625 C0.92585937 6.83671875 0.53140625 7.5328125 0.125 8.25 C-0.26429688 8.95640625 -0.65359375 9.6628125 -1.0546875 10.390625 C-1.36664063 10.92171875 -1.67859375 11.4528125 -2 12 C-2.66 11.34 -3.32 10.68 -4 10 C-2.68 6.7 -1.36 3.4 0 0 Z " fill="#A0A0A0" transform="translate(244,170)"/>
<path d="M0 0 C0.33 0.99 0.66 1.98 1 3 C-0.75 5.375 -0.75 5.375 -3 8 C-4.0268343 9.6502694 -5.03567924 11.31243867 -6 13 C-6.33 12.01 -6.66 11.02 -7 10 C-5.8203125 7.7734375 -5.8203125 7.7734375 -4.125 5.375 C-3.57070312 4.57835937 -3.01640625 3.78171875 -2.4453125 2.9609375 C-1 1 -1 1 0 0 Z " fill="#959595" transform="translate(91,171)"/>
<path d="M0 0 C1.98 0 3.96 0 6 0 C6 2.31 6 4.62 6 7 C1.125 2.25 1.125 2.25 0 0 Z " fill="#F9F9F9" transform="translate(225,47)"/>
<path d="M0 0 C0.66 0 1.32 0 2 0 C2 3.96 2 7.92 2 12 C-1 8 -1 8 -1.07421875 5.859375 C-0.53710938 2.9296875 -0.53710938 2.9296875 0 0 Z " fill="#949494" transform="translate(231,46)"/>
<path d="M0 0 C0.66 0 1.32 0 2 0 C4.125 4.625 4.125 4.625 3 8 C3 8.99 3 9.98 3 11 C2.34 10.67 1.68 10.34 1 10 C0.5859375 7.71484375 0.5859375 7.71484375 0.375 4.9375 C0.30023438 4.01839844 0.22546875 3.09929688 0.1484375 2.15234375 C0.09945312 1.44207031 0.05046875 0.73179688 0 0 Z " fill="#B6B6B6" transform="translate(214,46)"/>
<path d="M0 0 C3.69900008 0.88776002 7.34550461 1.94581864 11 3 C9.5 4.1875 9.5 4.1875 7 5 C4.21175762 4.27101296 1.62334908 3.1843275 -1 2 C-0.67 1.34 -0.34 0.68 0 0 Z " fill="#A8A8A8" transform="translate(168,9)"/>
<path d="M0 0 C0.66 0.33 1.32 0.66 2 1 C1.46930939 4.82097239 0.50298434 7.06171403 -2 10 C-2 6.09567131 -1.31626692 3.61973402 0 0 Z " fill="#A1A1A1" transform="translate(139,59)"/>
<path d="M0 0 C0.33 0 0.66 0 1 0 C1.33 3.63 1.66 7.26 2 11 C1.01 11.495 1.01 11.495 0 12 C-1.28571429 3.42857143 -1.28571429 3.42857143 0 0 Z " fill="#A9A9A9" transform="translate(163,183)"/>
<path d="M0 0 C2 1.8125 2 1.8125 4 4 C4 4.99 4 5.98 4 7 C1.69 6.67 -0.62 6.34 -3 6 C-3 5.67 -3 5.34 -3 5 C-1.35 5 0.3 5 2 5 C1.34 3.35 0.68 1.7 0 0 Z " fill="#818181" transform="translate(101,86)"/>
<path d="M0 0 C4.13718891 1.79046411 5.66320139 4.16097371 8 8 C7.01 8 6.02 8 5 8 C3.61328125 6.25 3.61328125 6.25 2.3125 4 C1.87550781 3.2575 1.43851563 2.515 0.98828125 1.75 C0.66214844 1.1725 0.33601562 0.595 0 0 Z " fill="#999999" transform="translate(159,216)"/>
<path d="M0 0 C0.99 0.66 1.98 1.32 3 2 C2.67 3.65 2.34 5.3 2 7 C1.5875 6.505 1.175 6.01 0.75 5.5 C-1.12202338 3.56613908 -1.12202338 3.56613908 -5 4 C-5 3.34 -5 2.68 -5 2 C-3.35 2 -1.7 2 0 2 C0 1.34 0 0.68 0 0 Z " fill="#636363" transform="translate(221,44)"/>
<path d="M0 0 C-3.36423277 2.96052484 -6.69159287 3.92289822 -11 5 C-8.77884349 0.55768697 -4.65018221 -0.39858705 0 0 Z " fill="#757575" transform="translate(185,238)"/>
<path d="M0 0 C0.66 0 1.32 0 2 0 C2.33 2.97 2.66 5.94 3 9 C2.67 8.01 2.34 7.02 2 6 C1.34 6 0.68 6 0 6 C0 4.02 0 2.04 0 0 Z " fill="#848484" transform="translate(143,176)"/>
<path d="M0 0 C0.66 0.33 1.32 0.66 2 1 C1.67 4.3 1.34 7.6 1 11 C-1.26609984 6.46780033 -0.92735976 4.82227075 0 0 Z " fill="#ADADAD" transform="translate(145,168)"/>
<path d="M0 0 C4.875 4.625 4.875 4.625 6 8 C5.01 8.495 5.01 8.495 4 9 C0 2.25 0 2.25 0 0 Z " fill="#9A9A9A" transform="translate(164,194)"/>
<path d="M0 0 C0.33 0.66 0.66 1.32 1 2 C2.65 2 4.3 2 6 2 C5.401875 2.28875 4.80375 2.5775 4.1875 2.875 C1.80672208 4.04742026 1.80672208 4.04742026 -1 6 C-1.625 4.125 -1.625 4.125 -2 2 C-1.34 1.34 -0.68 0.68 0 0 Z " fill="#5F5F5F" transform="translate(36,44)"/>
</svg>
